<svg xmlns="http://www.w3.org/2000/svg" xmlns:xlink="http://www.w3.org/1999/xlink" width="500" zoomAndPan="magnify" viewBox="0 0 375 374.999991" height="500" preserveAspectRatio="xMidYMid meet" version="1.0"><defs><clipPath id="4fbeef7561"><path d="M 374.824219 187.414062 C 374.824219 83.90625 290.917969 0 187.414062 0 C 83.90625 0 0 83.90625 0 187.414062 C 0 290.917969 83.90625 374.824219 187.414062 374.824219 C 290.917969 374.824219 374.824219 290.917969 374.824219 187.414062 Z M 374.824219 187.414062 " clip-rule="evenodd"/></clipPath><linearGradient x1="35.983002" gradientTransform="matrix(5.208333, 0, 0, 5.208333, 0.0000045, 0)" y1="71.966594" x2="35.983002" gradientUnits="userSpaceOnUse" y2="0" id="689d7dae09"><stop stop-opacity="1" stop-color="rgb(14.898682%, 13.299561%, 37.998962%)" offset="0"/><stop stop-opacity="1" stop-color="rgb(14.898682%, 13.299561%, 37.998962%)" offset="0.03125"/><stop stop-opacity="1" stop-color="rgb(14.898682%, 13.299561%, 37.998962%)" offset="0.046875"/><stop stop-opacity="1" stop-color="rgb(15.174866%, 13.391113%, 38.183594%)" offset="0.0507812"/><stop stop-opacity="1" stop-color="rgb(15.452576%, 13.484192%, 38.368225%)" offset="0.0546875"/><stop stop-opacity="1" stop-color="rgb(15.951538%, 13.591003%, 38.700867%)" offset="0.0585938"/><stop stop-opacity="1" stop-color="rgb(16.4505%, 13.699341%, 39.033508%)" offset="0.0625"/><stop stop-opacity="1" stop-color="rgb(16.841125%, 13.699341%, 39.292908%)" offset="0.0664063"/><stop stop-opacity="1" stop-color="rgb(17.23175%, 13.699341%, 39.553833%)" offset="0.0703125"/><stop stop-opacity="1" stop-color="rgb(17.822266%, 13.899231%, 40.180969%)" offset="0.0742188"/><stop stop-opacity="1" stop-color="rgb(18.412781%, 14.099121%, 40.808105%)" offset="0.078125"/><stop stop-opacity="1" stop-color="rgb(18.803406%, 14.099121%, 41.067505%)" offset="0.0820313"/><stop stop-opacity="1" stop-color="rgb(19.194031%, 14.099121%, 41.32843%)" offset="0.0859375"/><stop stop-opacity="1" stop-color="rgb(19.584656%, 14.161682%, 41.589355%)" offset="0.0898438"/><stop stop-opacity="1" stop-color="rgb(19.975281%, 14.224243%, 41.850281%)" offset="0.09375"/><stop stop-opacity="1" stop-color="rgb(20.365906%, 14.353943%, 42.10968%)" offset="0.0976563"/><stop stop-opacity="1" stop-color="rgb(20.756531%, 14.485168%, 42.370605%)" offset="0.101563"/><stop stop-opacity="1" stop-color="rgb(21.147156%, 14.491272%, 42.707825%)" offset="0.105469"/><stop stop-opacity="1" stop-color="rgb(21.537781%, 14.498901%, 43.045044%)" offset="0.109375"/><stop stop-opacity="1" stop-color="rgb(21.897888%, 14.61792%, 43.312073%)" offset="0.113281"/><stop stop-opacity="1" stop-color="rgb(22.257996%, 14.738464%, 43.579102%)" offset="0.117188"/><stop stop-opacity="1" stop-color="rgb(22.735596%, 14.81781%, 43.910217%)" offset="0.121094"/><stop stop-opacity="1" stop-color="rgb(23.214722%, 14.898682%, 44.242859%)" offset="0.125"/><stop stop-opacity="1" stop-color="rgb(23.683167%, 14.962769%, 44.598389%)" offset="0.128906"/><stop stop-opacity="1" stop-color="rgb(24.153137%, 15.026855%, 44.953918%)" offset="0.132813"/><stop stop-opacity="1" stop-color="rgb(24.414062%, 15.156555%, 45.213318%)" offset="0.136719"/><stop stop-opacity="1" stop-color="rgb(24.674988%, 15.286255%, 45.474243%)" offset="0.140625"/><stop stop-opacity="1" stop-color="rgb(25.245667%, 15.292358%, 45.858765%)" offset="0.144531"/><stop stop-opacity="1" stop-color="rgb(25.816345%, 15.299988%, 46.243286%)" offset="0.148438"/><stop stop-opacity="1" stop-color="rgb(26.098633%, 15.299988%, 46.391296%)" offset="0.152344"/><stop stop-opacity="1" stop-color="rgb(26.382446%, 15.299988%, 46.540833%)" offset="0.15625"/><stop stop-opacity="1" stop-color="rgb(26.693726%, 15.376282%, 46.772766%)" offset="0.160156"/><stop stop-opacity="1" stop-color="rgb(27.006531%, 15.452576%, 47.006226%)" offset="0.164063"/><stop stop-opacity="1" stop-color="rgb(27.34375%, 15.576172%, 47.291565%)" offset="0.167969"/><stop stop-opacity="1" stop-color="rgb(27.682495%, 15.699768%, 47.57843%)" offset="0.171875"/><stop stop-opacity="1" stop-color="rgb(27.931213%, 15.699768%, 47.683716%)" offset="0.175781"/><stop stop-opacity="1" stop-color="rgb(28.179932%, 15.699768%, 47.790527%)" offset="0.179688"/><stop stop-opacity="1" stop-color="rgb(28.564453%, 15.699768%, 48.170471%)" offset="0.183594"/><stop stop-opacity="1" stop-color="rgb(28.948975%, 15.699768%, 48.550415%)" offset="0.1875"/><stop stop-opacity="1" stop-color="rgb(29.217529%, 15.820312%, 48.696899%)" offset="0.191406"/><stop stop-opacity="1" stop-color="rgb(29.48761%, 15.942383%, 48.843384%)" offset="0.195312"/><stop stop-opacity="1" stop-color="rgb(29.747009%, 16.020203%, 49.024963%)" offset="0.199219"/><stop stop-opacity="1" stop-color="rgb(30.007935%, 16.099548%, 49.208069%)" offset="0.203125"/><stop stop-opacity="1" stop-color="rgb(30.267334%, 16.099548%, 49.467468%)" offset="0.207031"/><stop stop-opacity="1" stop-color="rgb(30.528259%, 16.099548%, 49.728394%)" offset="0.210938"/><stop stop-opacity="1" stop-color="rgb(30.900574%, 16.099548%, 49.932861%)" offset="0.214844"/><stop stop-opacity="1" stop-color="rgb(31.274414%, 16.099548%, 50.137329%)" offset="0.21875"/><stop stop-opacity="1" stop-color="rgb(31.455994%, 16.099548%, 50.286865%)" offset="0.226563"/><stop stop-opacity="1" stop-color="rgb(31.866455%, 16.183472%, 50.686646%)" offset="0.230469"/><stop stop-opacity="1" stop-color="rgb(32.095337%, 16.268921%, 50.93689%)" offset="0.234375"/><stop stop-opacity="1" stop-color="rgb(32.403564%, 16.383362%, 51.220703%)" offset="0.238281"/><stop stop-opacity="1" stop-color="rgb(32.711792%, 16.499329%, 51.506042%)" offset="0.242188"/><stop stop-opacity="1" stop-color="rgb(32.971191%, 16.499329%, 51.635742%)" offset="0.246094"/><stop stop-opacity="1" stop-color="rgb(33.232117%, 16.499329%, 51.765442%)" offset="0.25"/><stop stop-opacity="1" stop-color="rgb(33.435059%, 16.499329%, 51.953125%)" offset="0.253906"/><stop stop-opacity="1" stop-color="rgb(33.639526%, 16.499329%, 52.140808%)" offset="0.257813"/><stop stop-opacity="1" stop-color="rgb(33.889771%, 16.499329%, 52.252197%)" offset="0.261719"/><stop stop-opacity="1" stop-color="rgb(34.141541%, 16.499329%, 52.365112%)" offset="0.265625"/><stop stop-opacity="1" stop-color="rgb(34.390259%, 16.567993%, 52.500916%)" offset="0.269531"/><stop stop-opacity="1" stop-color="rgb(34.638977%, 16.638184%, 52.638245%)" offset="0.273438"/><stop stop-opacity="1" stop-color="rgb(34.823608%, 16.767883%, 52.822876%)" offset="0.28125"/><stop stop-opacity="1" stop-color="rgb(35.137939%, 16.899109%, 53.137207%)" offset="0.289063"/><stop stop-opacity="1" stop-color="rgb(35.397339%, 16.899109%, 53.398132%)" offset="0.296875"/><stop stop-opacity="1" stop-color="rgb(35.681152%, 16.899109%, 53.68042%)" offset="0.304688"/><stop stop-opacity="1" stop-color="rgb(36.048889%, 16.899109%, 53.965759%)" offset="0.308594"/><stop stop-opacity="1" stop-color="rgb(36.265564%, 16.899109%, 54.098511%)" offset="0.3125"/><stop stop-opacity="1" stop-color="rgb(36.526489%, 16.899109%, 54.098511%)" offset="0.316406"/><stop stop-opacity="1" stop-color="rgb(36.787415%, 16.899109%, 54.098511%)" offset="0.320312"/><stop stop-opacity="1" stop-color="rgb(37.017822%, 17.074585%, 54.273987%)" offset="0.324219"/><stop stop-opacity="1" stop-color="rgb(37.249756%, 17.250061%, 54.449463%)" offset="0.328125"/><stop stop-opacity="1" stop-color="rgb(37.361145%, 17.274475%, 54.589844%)" offset="0.335938"/><stop stop-opacity="1" stop-color="rgb(37.60376%, 17.298889%, 54.882812%)" offset="0.34375"/><stop stop-opacity="1" stop-color="rgb(37.867737%, 17.298889%, 55.168152%)" offset="0.359375"/><stop stop-opacity="1" stop-color="rgb(38.153076%, 17.298889%, 55.453491%)" offset="0.367188"/><stop stop-opacity="1" stop-color="rgb(38.352966%, 17.298889%, 55.653381%)" offset="0.375"/><stop stop-opacity="1" stop-color="rgb(38.468933%, 17.298889%, 55.699158%)" offset="0.382812"/><stop stop-opacity="1" stop-color="rgb(38.668823%, 17.330933%, 55.741882%)" offset="0.390625"/><stop stop-opacity="1" stop-color="rgb(38.798523%, 17.481995%, 55.941772%)" offset="0.40625"/><stop stop-opacity="1" stop-color="rgb(38.850403%, 17.599487%, 56.098938%)" offset="0.414062"/><stop stop-opacity="1" stop-color="rgb(39.050293%, 17.599487%, 56.098938%)" offset="0.421875"/><stop stop-opacity="1" stop-color="rgb(39.361572%, 17.599487%, 56.260681%)" offset="0.4375"/><stop stop-opacity="1" stop-color="rgb(39.668274%, 17.599487%, 56.460571%)" offset="0.453125"/><stop stop-opacity="1" stop-color="rgb(40.136719%, 17.599487%, 56.498718%)" offset="0.457031"/><stop stop-opacity="1" stop-color="rgb(40.463257%, 17.599487%, 56.498718%)" offset="0.460938"/><stop stop-opacity="1" stop-color="rgb(40.592957%, 17.599487%, 56.498718%)" offset="0.46875"/><stop stop-opacity="1" stop-color="rgb(41.079712%, 17.480469%, 56.498718%)" offset="0.472656"/><stop stop-opacity="1" stop-color="rgb(41.435242%, 17.36145%, 56.498718%)" offset="0.476562"/><stop stop-opacity="1" stop-color="rgb(41.622925%, 17.329407%, 56.498718%)" offset="0.484375"/><stop stop-opacity="1" stop-color="rgb(41.969299%, 17.298889%, 56.498718%)" offset="0.492188"/><stop stop-opacity="1" stop-color="rgb(42.353821%, 17.298889%, 56.498718%)" offset="0.496094"/><stop stop-opacity="1" stop-color="rgb(42.582703%, 17.298889%, 56.498718%)" offset="0.5"/><stop stop-opacity="1" stop-color="rgb(42.785645%, 17.298889%, 56.498718%)" offset="0.503906"/><stop stop-opacity="1" stop-color="rgb(42.990112%, 17.298889%, 56.498718%)" offset="0.507813"/><stop stop-opacity="1" stop-color="rgb(43.231201%, 17.298889%, 56.498718%)" offset="0.511719"/><stop stop-opacity="1" stop-color="rgb(43.473816%, 17.298889%, 56.498718%)" offset="0.515625"/><stop stop-opacity="1" stop-color="rgb(43.727112%, 17.25769%, 56.498718%)" offset="0.519531"/><stop stop-opacity="1" stop-color="rgb(43.981934%, 17.216492%, 56.498718%)" offset="0.523438"/><stop stop-opacity="1" stop-color="rgb(44.177246%, 17.0578%, 56.498718%)" offset="0.527344"/><stop stop-opacity="1" stop-color="rgb(44.374084%, 16.899109%, 56.498718%)" offset="0.53125"/><stop stop-opacity="1" stop-color="rgb(44.503784%, 16.899109%, 56.498718%)" offset="0.539063"/><stop stop-opacity="1" stop-color="rgb(44.813538%, 16.899109%, 56.498718%)" offset="0.546875"/><stop stop-opacity="1" stop-color="rgb(45.236206%, 16.899109%, 56.498718%)" offset="0.550781"/><stop stop-opacity="1" stop-color="rgb(45.478821%, 16.899109%, 56.498718%)" offset="0.554688"/><stop stop-opacity="1" stop-color="rgb(45.726013%, 16.899109%, 56.498718%)" offset="0.558594"/><stop stop-opacity="1" stop-color="rgb(45.974731%, 16.899109%, 56.498718%)" offset="0.5625"/><stop stop-opacity="1" stop-color="rgb(46.160889%, 16.874695%, 56.474304%)" offset="0.570313"/><stop stop-opacity="1" stop-color="rgb(46.488953%, 16.7099%, 56.309509%)" offset="0.578125"/><stop stop-opacity="1" stop-color="rgb(46.812439%, 16.532898%, 56.132507%)" offset="0.585938"/><stop stop-opacity="1" stop-color="rgb(47.143555%, 16.499329%, 56.098938%)" offset="0.59375"/><stop stop-opacity="1" stop-color="rgb(47.415161%, 16.499329%, 56.098938%)" offset="0.601562"/><stop stop-opacity="1" stop-color="rgb(47.636414%, 16.499329%, 56.098938%)" offset="0.609375"/><stop stop-opacity="1" stop-color="rgb(48.025513%, 16.499329%, 56.098938%)" offset="0.613281"/><stop stop-opacity="1" stop-color="rgb(48.318481%, 16.499329%, 56.098938%)" offset="0.617188"/><stop stop-opacity="1" stop-color="rgb(48.548889%, 16.499329%, 56.098938%)" offset="0.621094"/><stop stop-opacity="1" stop-color="rgb(48.780823%, 16.499329%, 56.098938%)" offset="0.625"/><stop stop-opacity="1" stop-color="rgb(48.934937%, 16.453552%, 56.098938%)" offset="0.632812"/><stop stop-opacity="1" stop-color="rgb(49.272156%, 16.253662%, 56.098938%)" offset="0.640625"/><stop stop-opacity="1" stop-color="rgb(49.583435%, 16.099548%, 56.098938%)" offset="0.648438"/><stop stop-opacity="1" stop-color="rgb(49.887085%, 16.099548%, 56.098938%)" offset="0.65625"/><stop stop-opacity="1" stop-color="rgb(50.215149%, 16.099548%, 56.098938%)" offset="0.664062"/><stop stop-opacity="1" stop-color="rgb(50.508118%, 16.099548%, 56.098938%)" offset="0.671875"/><stop stop-opacity="1" stop-color="rgb(50.823975%, 16.099548%, 56.098938%)" offset="0.6875"/><stop stop-opacity="1" stop-color="rgb(51.087952%, 16.099548%, 56.098938%)" offset="0.695312"/><stop stop-opacity="1" stop-color="rgb(51.315308%, 16.099548%, 56.098938%)" offset="0.703125"/><stop stop-opacity="1" stop-color="rgb(51.643372%, 16.099548%, 56.098938%)" offset="0.710938"/><stop stop-opacity="1" stop-color="rgb(51.960754%, 16.099548%, 56.098938%)" offset="0.71875"/><stop stop-opacity="1" stop-color="rgb(52.210999%, 16.009521%, 56.008911%)" offset="0.734375"/><stop stop-opacity="1" stop-color="rgb(52.445984%, 15.809631%, 55.809021%)" offset="0.742188"/><stop stop-opacity="1" stop-color="rgb(52.728271%, 15.699768%, 55.699158%)" offset="0.75"/><stop stop-opacity="1" stop-color="rgb(53.015137%, 15.699768%, 55.699158%)" offset="0.765625"/><stop stop-opacity="1" stop-color="rgb(53.295898%, 15.699768%, 55.699158%)" offset="0.773437"/><stop stop-opacity="1" stop-color="rgb(53.579712%, 15.699768%, 55.699158%)" offset="0.78125"/><stop stop-opacity="1" stop-color="rgb(53.846741%, 15.699768%, 55.699158%)" offset="0.796875"/><stop stop-opacity="1" stop-color="rgb(54.124451%, 15.699768%, 55.699158%)" offset="0.804687"/><stop stop-opacity="1" stop-color="rgb(54.377747%, 15.699768%, 55.699158%)" offset="0.8125"/><stop stop-opacity="1" stop-color="rgb(54.646301%, 15.699768%, 55.699158%)" offset="0.828125"/><stop stop-opacity="1" stop-color="rgb(54.925537%, 15.699768%, 55.699158%)" offset="0.84375"/><stop stop-opacity="1" stop-color="rgb(55.178833%, 15.699768%, 55.699158%)" offset="0.875"/><stop stop-opacity="1" stop-color="rgb(55.378723%, 15.699768%, 55.699158%)" offset="0.882813"/><stop stop-opacity="1" stop-color="rgb(55.578613%, 15.699768%, 55.699158%)" offset="0.890625"/><stop stop-opacity="1" stop-color="rgb(55.699158%, 15.592957%, 55.699158%)" offset="0.90625"/><stop stop-opacity="1" stop-color="rgb(55.841064%, 15.393066%, 55.699158%)" offset="0.9375"/><stop stop-opacity="1" stop-color="rgb(56.040955%, 15.299988%, 55.699158%)" offset="0.96875"/><stop stop-opacity="1" stop-color="rgb(56.236267%, 15.299988%, 55.699158%)" offset="0.976562"/><stop stop-opacity="1" stop-color="rgb(56.436157%, 15.299988%, 55.699158%)" offset="0.984375"/><stop stop-opacity="1" stop-color="rgb(56.498718%, 15.299988%, 55.699158%)" offset="1"/></linearGradient></defs><g clip-path="url(#4fbeef7561)"><path fill="url(#689d7dae09)" d="M 0 0 L 0 374.824219 L 374.824219 374.824219 L 374.824219 0 Z M 0 0 " fill-rule="nonzero"/></g><path fill="#ffffff" d="M 201.8125 300.210938 L 172.832031 300.210938 C 169.164062 300.210938 166.414062 297.457031 166.414062 293.789062 L 166.414062 267.378906 C 159.074219 265.546875 152.105469 262.609375 145.503906 258.757812 L 126.796875 277.46875 C 125.695312 278.566406 124.042969 279.484375 122.210938 279.484375 C 120.378906 279.484375 118.726562 278.75 117.625 277.46875 L 97.449219 257.292969 C 96.351562 256.191406 95.433594 254.539062 95.433594 252.707031 C 95.433594 250.871094 96.167969 249.222656 97.449219 248.121094 L 115.976562 229.597656 C 112.125 222.808594 109.1875 215.839844 107.355469 208.6875 L 80.941406 208.6875 C 77.277344 208.6875 74.523438 205.9375 74.523438 202.269531 L 74.523438 173.105469 C 74.523438 169.4375 77.277344 166.6875 80.941406 166.6875 L 107.355469 166.6875 C 109.1875 159.351562 112.125 152.199219 115.976562 145.59375 L 97.449219 127.070312 C 96.167969 125.785156 95.433594 124.136719 95.433594 122.300781 C 95.433594 120.652344 96.167969 119 97.449219 117.898438 L 117.625 97.542969 C 120.191406 95.15625 124.59375 95.15625 126.796875 97.542969 L 145.503906 116.433594 C 152.105469 112.582031 159.257812 109.648438 166.414062 107.628906 L 166.414062 81.035156 C 166.414062 77.550781 169.347656 74.617188 172.832031 74.617188 L 201.8125 74.617188 C 205.296875 74.617188 208.230469 77.550781 208.230469 81.035156 L 208.230469 107.628906 C 215.75 109.648438 222.71875 112.582031 229.136719 116.433594 L 247.847656 97.542969 C 250.597656 95.15625 254.449219 95.15625 256.832031 97.542969 L 277.375 118.085938 C 279.761719 120.46875 279.761719 124.320312 277.558594 127.070312 L 258.484375 145.777344 C 262.335938 152.199219 265.269531 159.351562 267.289062 166.6875 L 293.882812 166.6875 C 297.367188 166.6875 300.300781 169.621094 300.300781 173.105469 L 300.300781 202.085938 C 300.300781 205.570312 297.367188 208.503906 293.882812 208.503906 L 267.289062 208.503906 C 265.269531 215.839844 262.335938 222.8125 258.484375 229.414062 L 277.375 248.121094 C 278.476562 249.222656 279.210938 250.871094 279.210938 252.707031 C 279.210938 254.539062 278.476562 256.007812 277.375 257.292969 L 256.832031 277.652344 C 255.734375 278.75 254.265625 279.484375 252.613281 279.484375 C 250.78125 279.484375 249.128906 278.933594 247.847656 277.46875 L 229.136719 258.757812 C 222.535156 262.609375 215.382812 265.546875 208.046875 267.378906 L 208.046875 293.792969 C 208.230469 297.460938 205.296875 300.210938 201.8125 300.210938 Z M 144.953125 251.421875 C 145.503906 251.421875 146.054688 251.605469 146.605469 251.972656 C 154.125 256.742188 162.011719 260.042969 170.265625 261.695312 C 171.730469 262.058594 172.832031 263.34375 172.832031 264.8125 L 172.832031 293.789062 L 201.628906 293.789062 L 201.628906 264.8125 C 201.628906 263.34375 202.726562 262.058594 204.195312 261.695312 C 212.449219 259.859375 220.703125 256.558594 227.855469 251.972656 C 229.136719 251.238281 230.789062 251.421875 231.890625 252.339844 L 252.25 272.699219 L 272.605469 252.339844 L 252.25 232.164062 C 251.148438 231.0625 250.964844 229.414062 251.882812 228.128906 C 256.46875 220.792969 259.769531 212.722656 261.785156 204.46875 C 262.152344 203.003906 263.4375 201.902344 264.902344 201.902344 L 293.882812 201.902344 L 293.882812 173.105469 L 264.902344 173.105469 C 263.4375 173.105469 262.152344 172.007812 261.785156 170.539062 C 259.769531 162.101562 256.464844 154.03125 251.882812 146.878906 C 251.148438 145.59375 251.332031 143.945312 252.246094 142.84375 L 272.789062 122.300781 L 252.433594 102.128906 L 231.890625 122.667969 C 230.789062 123.769531 229.136719 123.953125 227.855469 123.035156 C 220.703125 118.449219 212.632812 115.148438 204.195312 113.132812 C 202.726562 112.765625 201.628906 111.480469 201.628906 110.011719 L 201.628906 81.035156 L 172.832031 81.035156 L 172.832031 110.015625 C 172.832031 111.480469 171.730469 112.765625 170.265625 113.132812 C 162.011719 114.964844 153.941406 118.449219 146.605469 123.035156 C 145.320312 123.769531 143.667969 123.585938 142.570312 122.667969 L 122.210938 102.128906 L 102.035156 122.484375 L 122.394531 142.84375 C 123.496094 143.945312 123.679688 145.597656 122.761719 146.878906 C 118.175781 154.03125 114.875 162.285156 113.039062 170.539062 C 112.675781 172.007812 111.390625 173.105469 109.921875 173.105469 L 80.941406 173.105469 L 80.941406 201.902344 L 109.921875 201.902344 C 111.390625 201.902344 112.675781 203.003906 113.039062 204.46875 C 114.875 212.722656 118.175781 220.609375 122.761719 228.128906 C 123.496094 229.414062 123.3125 231.066406 122.394531 232.164062 L 102.035156 252.523438 L 122.394531 272.882812 L 142.753906 252.339844 C 143.300781 251.789062 144.21875 251.421875 144.953125 251.421875 Z M 252.25 272.882812 C 252.25 273.066406 252.25 273.066406 252.25 272.882812 Z M 252.25 272.882812 " fill-opacity="1" fill-rule="evenodd"/><path fill="#ffffff" d="M 187.320312 245.921875 C 171.730469 245.921875 157.058594 239.867188 146.054688 228.863281 C 123.3125 206.121094 123.3125 169.070312 146.054688 146.328125 C 157.058594 135.324219 171.730469 129.085938 187.320312 129.085938 C 202.910156 129.085938 217.582031 135.140625 228.589844 146.328125 C 239.59375 157.332031 245.828125 172.007812 245.828125 187.597656 C 245.828125 203.183594 239.777344 217.859375 228.589844 228.863281 C 217.582031 239.867188 202.910156 245.921875 187.320312 245.921875 Z M 187.320312 135.507812 C 173.382812 135.507812 160.359375 141.011719 150.640625 150.730469 C 130.464844 170.90625 130.464844 203.917969 150.640625 224.277344 C 160.359375 234 173.566406 239.5 187.320312 239.5 C 201.261719 239.5 214.28125 234.183594 224.003906 224.277344 C 233.90625 214.375 239.410156 201.351562 239.410156 187.597656 C 239.410156 173.839844 233.90625 160.636719 224.1875 150.914062 C 214.28125 140.828125 201.261719 135.507812 187.320312 135.507812 Z M 148.253906 148.53125 Z M 148.253906 148.53125 " fill-opacity="1" fill-rule="evenodd"/><path fill="#ffffff" d="M 192.824219 215.839844 C 191.539062 215.839844 190.257812 214.925781 189.707031 213.640625 L 172.464844 163.203125 C 171.914062 161.550781 172.832031 159.71875 174.484375 159.167969 C 176.132812 158.617188 177.96875 159.535156 178.519531 161.183594 L 195.757812 211.621094 C 196.308594 213.273438 195.390625 215.105469 193.742188 215.65625 C 193.558594 215.839844 193.191406 215.839844 192.824219 215.839844 Z M 192.824219 215.839844 " fill-opacity="1" fill-rule="evenodd"/><path fill="#ffffff" d="M 158.710938 215.839844 C 158.34375 215.839844 157.976562 215.839844 157.609375 215.65625 C 155.957031 215.105469 155.042969 213.273438 155.589844 211.621094 L 172.648438 161.183594 C 173.199219 159.535156 175.03125 158.617188 176.683594 159.167969 C 178.335938 159.71875 179.25 161.550781 178.703125 163.203125 L 161.644531 213.640625 C 161.277344 215.109375 159.992188 215.839844 158.710938 215.839844 Z M 158.710938 215.839844 " fill-opacity="1" fill-rule="evenodd"/><path fill="#ffffff" d="M 185.671875 195.117188 L 165.679688 195.117188 C 163.84375 195.117188 162.378906 193.648438 162.378906 191.816406 C 162.378906 189.980469 163.84375 188.511719 165.679688 188.511719 L 185.671875 188.511719 C 187.503906 188.511719 188.972656 189.980469 188.972656 191.816406 C 188.972656 193.648438 187.503906 195.117188 185.671875 195.117188 Z M 185.671875 195.117188 " fill-opacity="1" fill-rule="evenodd"/><path fill="#ffffff" d="M 209.332031 215.839844 C 207.496094 215.839844 206.027344 214.375 206.027344 212.539062 L 206.027344 162.285156 C 206.027344 160.453125 207.496094 158.984375 209.332031 158.984375 C 211.164062 158.984375 212.632812 160.453125 212.632812 162.285156 L 212.632812 212.539062 C 212.632812 214.375 211.164062 215.839844 209.332031 215.839844 Z M 209.332031 215.839844 " fill-opacity="1" fill-rule="evenodd"/><path fill="#ffffff" d="M 216.117188 165.585938 L 202.359375 165.585938 C 200.527344 165.585938 199.058594 164.121094 199.058594 162.285156 C 199.058594 160.453125 200.527344 158.984375 202.359375 158.984375 L 216.117188 158.984375 C 217.949219 158.984375 219.417969 160.453125 219.417969 162.285156 C 219.417969 164.121094 217.949219 165.585938 216.117188 165.585938 Z M 216.117188 165.585938 " fill-opacity="1" fill-rule="evenodd"/><path fill="#ffffff" d="M 216.117188 215.839844 L 202.359375 215.839844 C 200.527344 215.839844 199.058594 214.375 199.058594 212.539062 C 199.058594 210.707031 200.527344 209.238281 202.359375 209.238281 L 216.117188 209.238281 C 217.949219 209.238281 219.417969 210.707031 219.417969 212.539062 C 219.417969 214.375 217.949219 215.839844 216.117188 215.839844 Z M 216.117188 215.839844 " fill-opacity="1" fill-rule="evenodd"/></svg>