<svg xmlns="http://www.w3.org/2000/svg" xmlns:xlink="http://www.w3.org/1999/xlink" width="500" zoomAndPan="magnify" viewBox="0 0 375 374.999991" height="500" preserveAspectRatio="xMidYMid meet" version="1.0"><path fill="#1877f2" d="M 375 187.5 C 375 83.945312 291.054688 0 187.5 0 C 83.945312 0 0 83.945312 0 187.5 C 0 281.085938 68.566406 358.65625 158.203125 372.722656 L 158.203125 241.699219 L 110.59375 241.699219 L 110.59375 187.5 L 158.203125 187.5 L 158.203125 146.191406 C 158.203125 99.199219 186.195312 73.242188 229.023438 73.242188 C 249.539062 73.242188 270.996094 76.902344 270.996094 76.902344 L 270.996094 123.046875 L 247.351562 123.046875 C 224.0625 123.046875 216.796875 137.5 216.796875 152.328125 L 216.796875 187.5 L 268.796875 187.5 L 260.484375 241.699219 L 216.796875 241.699219 L 216.796875 372.722656 C 306.433594 358.65625 375 281.085938 375 187.5 " fill-opacity="1" fill-rule="nonzero"/><path fill="#ffffff" d="M 260.484375 241.699219 L 268.796875 187.5 L 216.796875 187.5 L 216.796875 152.328125 C 216.796875 137.5 224.0625 123.046875 247.351562 123.046875 L 270.996094 123.046875 L 270.996094 76.902344 C 270.996094 76.902344 249.539062 73.242188 229.023438 73.242188 C 186.195312 73.242188 158.203125 99.199219 158.203125 146.191406 L 158.203125 187.5 L 110.59375 187.5 L 110.59375 241.699219 L 158.203125 241.699219 L 158.203125 372.722656 C 167.75 374.21875 177.535156 375 187.5 375 C 197.464844 375 207.25 374.21875 216.796875 372.722656 L 216.796875 241.699219 L 260.484375 241.699219 " fill-opacity="1" fill-rule="nonzero"/></svg>