<svg xmlns="http://www.w3.org/2000/svg" xmlns:xlink="http://www.w3.org/1999/xlink" width="500" zoomAndPan="magnify" viewBox="0 0 375 374.999991" height="500" preserveAspectRatio="xMidYMid meet" version="1.0"><defs><clipPath id="0f0b740bf5"><path d="M 4.832031 13 L 370.082031 13 L 370.082031 370 L 4.832031 370 Z M 4.832031 13 " clip-rule="nonzero"/></clipPath></defs><g clip-path="url(#0f0b740bf5)"><path fill="#000000" d="M 187.457031 13.882812 C 86.597656 13.882812 4.832031 95.535156 4.832031 196.179688 C 4.832031 276.734375 57.183594 345.109375 129.730469 369.253906 C 138.839844 370.902344 145.316406 361.570312 145.316406 354.546875 C 145.316406 350.269531 145.425781 345.109375 145.316406 329.964844 C 94.5 340.9375 78.585938 305.378906 78.585938 305.378906 C 70.246094 284.308594 60.148438 278.269531 60.148438 278.269531 C 43.574219 266.96875 61.355469 267.296875 61.355469 267.296875 C 79.683594 268.503906 89.121094 284.308594 89.121094 284.308594 C 103.171875 308.890625 134.886719 306.476562 145.316406 301.867188 C 145.316406 290.671875 146.523438 282.550781 149.59375 277.394531 C 92.195312 267.296875 60.917969 234.152344 61.027344 188.277344 C 61.136719 161.167969 70.464844 140.09375 85.609375 124.511719 C 79.023438 116.167969 74.527344 87.632812 88.023438 70.074219 C 121.9375 70.074219 142.132812 94.546875 142.132812 94.546875 C 142.132812 94.546875 158.046875 87.632812 187.347656 87.632812 C 216.761719 87.632812 232.566406 94.21875 232.566406 94.21875 C 232.566406 94.21875 252.871094 70.074219 286.78125 70.074219 C 300.28125 87.632812 295.78125 116.167969 290.515625 123.960938 C 305 139.21875 313.890625 160.289062 313.890625 188.277344 C 313.890625 234.152344 282.722656 267.296875 225.433594 277.285156 C 229.054688 282.769531 229.601562 290.453125 229.601562 301.867188 C 229.601562 326.230469 229.601562 348.511719 229.601562 354.546875 C 229.601562 361.570312 235.96875 371.011719 245.296875 369.253906 C 317.84375 345 370.082031 276.734375 370.082031 196.179688 C 370.082031 95.535156 288.320312 13.882812 187.457031 13.882812 Z M 187.457031 13.882812 " fill-opacity="1" fill-rule="nonzero"/></g></svg>