<svg xmlns="http://www.w3.org/2000/svg" xmlns:xlink="http://www.w3.org/1999/xlink" width="500" zoomAndPan="magnify" viewBox="0 0 375 374.999991" height="500" preserveAspectRatio="xMidYMid meet" version="1.0"><defs><clipPath id="17cc48201e"><path d="M 191 153 L 371.660156 153 L 371.660156 330 L 191 330 Z M 191 153 " clip-rule="nonzero"/></clipPath><clipPath id="e74e3e4a90"><path d="M 3.410156 102 L 85 102 L 85 272 L 3.410156 272 Z M 3.410156 102 " clip-rule="nonzero"/></clipPath></defs><g clip-path="url(#17cc48201e)"><path fill="#4285f4" d="M 371.304688 191.664062 C 371.304688 176.253906 370.054688 164.996094 367.339844 153.332031 L 191.269531 153.332031 L 191.269531 222.917969 L 294.625 222.917969 C 292.542969 240.210938 281.28125 266.25 256.285156 283.742188 L 255.925781 286.082031 L 311.605469 329.199219 L 315.453125 329.585938 C 350.878906 296.867188 371.304688 248.753906 371.304688 191.664062 " fill-opacity="1" fill-rule="nonzero"/></g><path fill="#34a853" d="M 191.269531 375 C 241.90625 375 284.410156 358.339844 315.453125 329.585938 L 256.285156 283.742188 C 240.441406 294.785156 219.195312 302.5 191.269531 302.5 C 141.675781 302.5 99.585938 269.796875 84.582031 224.582031 L 82.382812 224.769531 L 24.492188 269.566406 L 23.738281 271.664062 C 54.574219 332.917969 117.921875 375 191.261719 375 " fill-opacity="1" fill-rule="nonzero"/><g clip-path="url(#e74e3e4a90)"><path fill="#fbbc05" d="M 84.582031 224.582031 C 80.621094 212.921875 78.332031 200.410156 78.332031 187.5 C 78.332031 174.589844 80.621094 162.078125 84.371094 150.417969 L 84.269531 147.933594 L 25.652344 102.421875 L 23.738281 103.332031 C 11.027344 128.75 3.734375 157.296875 3.734375 187.5 C 3.734375 217.703125 11.027344 246.257812 23.738281 271.664062 L 84.582031 224.582031 " fill-opacity="1" fill-rule="nonzero"/></g><path fill="#eb4335" d="M 191.269531 72.5 C 226.476562 72.5 250.238281 87.707031 263.785156 100.417969 L 316.703125 48.75 C 284.195312 18.542969 241.90625 0 191.269531 0 C 117.921875 0 54.574219 42.082031 23.742188 103.332031 L 84.371094 150.417969 C 99.585938 105.207031 141.675781 72.5 191.269531 72.5 " fill-opacity="1" fill-rule="nonzero"/></svg>