<svg xmlns="http://www.w3.org/2000/svg" xmlns:xlink="http://www.w3.org/1999/xlink" width="500" zoomAndPan="magnify" viewBox="0 0 375 374.999991" height="500" preserveAspectRatio="xMidYMid meet" version="1.0"><defs><clipPath id="5df81dddad"><path d="M 16.800781 16.800781 L 358.050781 16.800781 L 358.050781 358.050781 L 16.800781 358.050781 Z M 16.800781 16.800781 " clip-rule="nonzero"/></clipPath></defs><rect x="-37.5" width="450" fill="#ffffff" y="-37.499999" height="449.999989" fill-opacity="1"/><rect x="-37.5" width="450" fill="#ffffff" y="-37.499999" height="449.999989" fill-opacity="1"/><rect x="-37.5" width="450" fill="#ffffff" y="-37.499999" height="449.999989" fill-opacity="1"/><g clip-path="url(#5df81dddad)"><path fill="#001c2b" d="M 207.03125 217.195312 C 196.40625 228.875 182.511719 235.574219 168.917969 235.574219 C 144.742188 235.574219 129.117188 219.527344 129.117188 194.691406 C 129.117188 178.167969 135.1875 162.574219 146.210938 150.785156 C 156.648438 139.621094 170.453125 133.21875 184.089844 133.21875 C 207.152344 133.21875 223.890625 150.71875 223.890625 174.824219 C 223.890625 189.976562 217.746094 205.417969 207.03125 217.195312 Z M 308.425781 63.433594 C 276.089844 33.363281 233.246094 16.804688 187.792969 16.804688 C 141.796875 16.804688 98.695312 34.742188 66.421875 67.324219 C 34.425781 99.625 16.800781 142.410156 16.800781 187.796875 C 16.800781 283.277344 93.179688 358.070312 190.683594 358.070312 C 226.429688 358.070312 259.011719 349.230469 290.296875 331.054688 L 291.734375 330.222656 L 293.128906 328.832031 C 294.890625 327.128906 299.554688 322.621094 299.554688 314.9375 C 299.554688 304.867188 291.210938 296.363281 281.339844 296.363281 C 278.949219 296.363281 275.0625 296.90625 272.003906 298.4375 L 271.347656 298.789062 C 245.261719 313.796875 221.140625 320.199219 190.683594 320.199219 C 152.6875 320.199219 118.0625 306.480469 93.1875 281.5625 C 68.816406 257.144531 55.390625 223.847656 55.390625 187.796875 C 55.390625 152.011719 68.816406 118.601562 93.183594 93.71875 C 117.851562 68.539062 151.449219 54.671875 187.792969 54.671875 C 223.511719 54.671875 257.058594 67.796875 282.257812 91.625 C 305.910156 113.992188 319.472656 143.515625 319.472656 172.625 C 319.472656 193.445312 314.980469 210.253906 306.484375 221.230469 C 299.996094 229.621094 291.191406 234.238281 281.703125 234.238281 C 269.316406 234.238281 263.796875 229.160156 263.796875 217.773438 C 263.796875 214.417969 264.515625 206.996094 266.125 197.988281 L 279.136719 124.976562 C 280.488281 117.222656 278.460938 109.441406 273.578125 103.632812 C 268.863281 98.03125 261.953125 94.816406 254.617188 94.816406 C 245.09375 94.816406 237.101562 99.769531 232.632812 108.082031 C 220.0625 97.835938 204.523438 92.652344 186.347656 92.652344 C 162.730469 92.652344 138.617188 103.429688 120.191406 122.222656 C 100.800781 142.003906 90.121094 167.984375 90.121094 195.382812 C 90.121094 217.65625 98.257812 237.871094 113.027344 252.300781 C 127.292969 266.238281 146.664062 273.910156 167.570312 273.910156 C 189.050781 273.910156 207.769531 266.628906 224.640625 251.679688 C 236.507812 266.058594 255.152344 273.910156 277.730469 273.910156 C 299.210938 273.910156 319.039062 264.835938 333.558594 248.355469 C 349.59375 230.164062 358.066406 203.976562 358.066406 172.625 C 358.066406 132.566406 339.972656 92.765625 308.425781 63.433594 " fill-opacity="1" fill-rule="nonzero"/></g></svg>