<svg xmlns="http://www.w3.org/2000/svg" xmlns:xlink="http://www.w3.org/1999/xlink" width="500" zoomAndPan="magnify" viewBox="0 0 375 374.999991" height="500" preserveAspectRatio="xMidYMid meet" version="1.0"><defs><clipPath id="3e554eb2d4"><path d="M 12.796875 12.796875 L 362.296875 12.796875 L 362.296875 362.296875 L 12.796875 362.296875 Z M 12.796875 12.796875 " clip-rule="nonzero"/></clipPath></defs><g clip-path="url(#3e554eb2d4)"><path fill="#068b90" d="M 187.546875 12.796875 C 284.054688 12.796875 362.296875 91.03125 362.296875 187.546875 C 362.296875 284.054688 284.054688 362.296875 187.546875 362.296875 C 91.03125 362.296875 12.796875 284.054688 12.796875 187.546875 C 12.796875 91.03125 91.03125 12.796875 187.546875 12.796875 " fill-opacity="1" fill-rule="evenodd"/></g><path fill="#ffffff" d="M 178.878906 219.050781 C 169.65625 204.917969 164.207031 190.785156 161.273438 180.308594 C 158.597656 181.339844 155.421875 182.285156 151.980469 183.230469 C 143.285156 202.089844 145.140625 228.894531 152.390625 247.421875 C 158.15625 246.988281 163.054688 251.519531 163.054688 257.265625 C 163.054688 262.71875 158.621094 267.136719 153.148438 267.136719 C 144.394531 267.136719 140.003906 256.640625 146.003906 250.425781 C 138.507812 231.527344 136.398438 205.535156 143.449219 185.511719 C 130.203125 189.082031 115.914062 193.582031 111.167969 203.160156 C 102.5625 220.433594 99.222656 274.523438 99.25 296.074219 L 275.839844 296.074219 C 275.863281 274.339844 272.636719 220.65625 263.921875 203.160156 C 259.464844 194.175781 246.621094 189.660156 234.113281 186.1875 C 235.175781 193.09375 234.558594 200.496094 232.859375 207.902344 C 241.761719 211.515625 247.265625 220.414062 245.484375 231.699219 C 243.0625 247.023438 246.402344 274.648438 226.679688 270.230469 C 222.148438 269.21875 223.695312 262.355469 228.226562 263.371094 C 232.683594 264.371094 234.667969 261.351562 235.722656 256.664062 C 237.226562 249.992188 237.25 238.640625 238.515625 230.628906 C 241.476562 211.882812 216.328125 206.214844 210.949219 224.441406 C 208.679688 232.125 203.808594 242.414062 202.28125 249.175781 C 201.226562 253.863281 201.714844 257.433594 206.171875 258.433594 C 210.703125 259.445312 209.15625 266.308594 204.625 265.292969 C 184.929688 260.878906 199.753906 237.433594 204.175781 222.457031 C 207.4375 211.40625 216.359375 205.742188 225.972656 206.332031 C 227.71875 198.742188 228.277344 191.070312 226.503906 184.140625 C 221.761719 182.882812 217.355469 181.675781 213.816406 180.308594 C 211.21875 189.792969 205.128906 204.804688 196.03125 219.039062 L 192.789062 200.984375 L 195.210938 195.167969 L 187.457031 188.671875 L 179.703125 195.167969 L 182.125 200.984375 Z M 229.355469 117.601562 C 231.394531 117.234375 233.292969 117.578125 233.914062 119.808594 C 236.03125 127.386719 229.289062 137.957031 223.035156 137.320312 C 204.9375 183.085938 170.148438 183.085938 152.050781 137.320312 C 145.882812 137.9375 139.050781 127.386719 141.167969 119.808594 C 141.789062 117.582031 143.675781 117.234375 145.710938 117.601562 C 143.890625 109.636719 142.953125 99.785156 144.6875 91.785156 C 152.109375 57.554688 213.347656 51.621094 216.753906 73.511719 C 233.300781 79.015625 234.144531 96.875 229.355469 117.601562 Z M 229.355469 117.601562 " fill-opacity="1" fill-rule="evenodd"/></svg>