<svg xmlns="http://www.w3.org/2000/svg" xmlns:xlink="http://www.w3.org/1999/xlink" width="500" zoomAndPan="magnify" viewBox="0 0 375 374.999991" height="500" preserveAspectRatio="xMidYMid meet" version="1.0"><defs><clipPath id="f9637b53d1"><path d="M 64.347656 37.550781 L 310.347656 37.550781 L 310.347656 337.453125 L 64.347656 337.453125 Z M 64.347656 37.550781 " clip-rule="nonzero"/></clipPath><clipPath id="ce4d1cacc3"><path d="M 94 37.5 L 310.347656 37.5 L 310.347656 279 L 94 279 Z M 94 37.5 " clip-rule="nonzero"/></clipPath></defs><path fill="#fff3e4" d="M 74.167969 307.742188 C 74.167969 318.710938 83.066406 327.621094 94.011719 327.621094 L 295.554688 327.621094 C 289.515625 323.101562 285.601562 315.882812 285.601562 307.742188 C 285.601562 299.621094 289.511719 292.40625 295.550781 287.886719 L 94.011719 287.886719 C 83.066406 287.886719 74.167969 296.796875 74.167969 307.742188 " fill-opacity="1" fill-rule="nonzero"/><g clip-path="url(#f9637b53d1)"><path fill="#005a2b" d="M 94.011719 278.054688 L 94.011719 37.550781 C 80.34375 37.550781 64.894531 48.628906 64.894531 62.324219 L 64.347656 308.753906 L 64.371094 308.71875 C 64.886719 324.652344 77.984375 337.453125 94.011719 337.453125 L 310.347656 337.453125 L 310.347656 327.621094 L 94.011719 327.621094 C 83.066406 327.621094 74.167969 318.710938 74.167969 307.742188 C 74.167969 296.796875 83.066406 287.886719 94.011719 287.886719 L 310.347656 287.886719 L 310.347656 278.054688 L 94.011719 278.054688 " fill-opacity="1" fill-rule="nonzero"/></g><g clip-path="url(#ce4d1cacc3)"><path fill="#6ea240" d="M 94.011719 37.550781 L 94.011719 278.054688 L 310.347656 278.054688 L 310.347656 37.550781 L 94.011719 37.550781 " fill-opacity="1" fill-rule="nonzero"/></g></svg>