<svg xmlns="http://www.w3.org/2000/svg" xmlns:xlink="http://www.w3.org/1999/xlink" width="500" zoomAndPan="magnify" viewBox="0 0 375 374.999991" height="500" preserveAspectRatio="xMidYMid meet" version="1.0"><defs><filter x="0%" y="0%" width="100%" height="100%" id="51f57fbb7e"><feColorMatrix values="0 0 0 0 1 0 0 0 0 1 0 0 0 0 1 0 0 0 1 0" color-interpolation-filters="sRGB"/></filter><mask id="c0b34f0c01"><g filter="url(#51f57fbb7e)"><rect x="-37.5" width="450" fill="#000000" y="-37.499999" height="449.999989" fill-opacity="0.6078"/></g></mask><clipPath id="850185ea63"><path d="M 0.40625 2.546875 L 326.65625 2.546875 L 326.65625 222.296875 L 0.40625 222.296875 Z M 0.40625 2.546875 " clip-rule="nonzero"/></clipPath><clipPath id="2ecb5e937d"><rect x="0" width="327" y="0" height="223"/></clipPath><mask id="c6f9508811"><g filter="url(#51f57fbb7e)"><rect x="-37.5" width="450" fill="#000000" y="-37.499999" height="449.999989" fill-opacity="0.5569"/></g></mask><clipPath id="6f1b7ee2dd"><path d="M 0.335938 0.699219 L 326.585938 0.699219 L 326.585938 220.449219 L 0.335938 220.449219 Z M 0.335938 0.699219 " clip-rule="nonzero"/></clipPath><clipPath id="2b4fc49fb6"><rect x="0" width="327" y="0" height="223"/></clipPath></defs><g mask="url(#c0b34f0c01)"><g transform="matrix(1, 0, 0, 1, 24, 104)"><g clip-path="url(#2ecb5e937d)"><g clip-path="url(#850185ea63)"><path fill="#00c2cb" d="M 326.65625 222.296875 L 163.53125 2.546875 L 0.40625 222.296875 L 326.65625 222.296875 " fill-opacity="1" fill-rule="nonzero"/></g></g></g></g><g mask="url(#c6f9508811)"><g transform="matrix(1, 0, 0, 1, 24, 48)"><g clip-path="url(#2b4fc49fb6)"><g clip-path="url(#6f1b7ee2dd)"><path fill="#ff5757" d="M 0.335938 0.699219 L 163.460938 220.449219 L 326.585938 0.699219 L 0.335938 0.699219 " fill-opacity="1" fill-rule="nonzero"/></g></g></g></g></svg>