<svg xmlns="http://www.w3.org/2000/svg" xmlns:xlink="http://www.w3.org/1999/xlink" width="500" zoomAndPan="magnify" viewBox="0 0 375 374.999991" height="500" preserveAspectRatio="xMidYMid meet" version="1.0"><defs><clipPath id="2c0542c767"><path d="M 183 35.941406 L 194 35.941406 L 194 77 L 183 77 Z M 183 35.941406 " clip-rule="nonzero"/></clipPath><clipPath id="c35529dd15"><path d="M 183 297 L 194 297 L 194 337.441406 L 183 337.441406 Z M 183 297 " clip-rule="nonzero"/></clipPath><clipPath id="6349ad023d"><path d="M 37.5 181 L 78 181 L 78 192 L 37.5 192 Z M 37.5 181 " clip-rule="nonzero"/></clipPath></defs><g clip-path="url(#2c0542c767)"><path fill="#f0c419" d="M 188.25 35.941406 C 185.476562 35.941406 183.21875 38.199219 183.21875 40.972656 L 183.21875 71.125 C 183.21875 73.898438 185.476562 76.132812 188.25 76.132812 C 191.023438 76.132812 193.28125 73.898438 193.28125 71.125 L 193.28125 40.972656 C 193.28125 38.199219 191.023438 35.941406 188.25 35.941406 Z M 188.25 35.941406 " fill-opacity="1" fill-rule="nonzero"/></g><g clip-path="url(#c35529dd15)"><path fill="#f0c419" d="M 188.25 297.25 C 185.476562 297.25 183.21875 299.484375 183.21875 302.257812 L 183.21875 332.410156 C 183.21875 335.183594 185.476562 337.441406 188.25 337.441406 C 191.023438 337.441406 193.28125 335.183594 193.28125 332.410156 L 193.28125 302.257812 C 193.28125 299.484375 191.023438 297.25 188.25 297.25 Z M 188.25 297.25 " fill-opacity="1" fill-rule="nonzero"/></g><path fill="#f0c419" d="M 333.96875 181.660156 L 303.816406 181.660156 C 301.042969 181.660156 298.808594 183.917969 298.808594 186.691406 C 298.808594 189.464844 301.042969 191.722656 303.816406 191.722656 L 333.96875 191.722656 C 336.742188 191.722656 339 189.464844 339 186.691406 C 339 183.917969 336.742188 181.660156 333.96875 181.660156 Z M 333.96875 181.660156 " fill-opacity="1" fill-rule="nonzero"/><g clip-path="url(#6349ad023d)"><path fill="#f0c419" d="M 77.691406 186.691406 C 77.691406 183.917969 75.457031 181.660156 72.683594 181.660156 L 42.53125 181.660156 C 39.757812 181.660156 37.5 183.917969 37.5 186.691406 C 37.5 189.464844 39.757812 191.722656 42.53125 191.722656 L 72.683594 191.722656 C 75.457031 191.722656 77.691406 189.464844 77.691406 186.691406 Z M 77.691406 186.691406 " fill-opacity="1" fill-rule="nonzero"/></g><path fill="#f0c419" d="M 269.980469 109.992188 C 271.253906 109.992188 272.554688 109.5 273.539062 108.519531 L 302.34375 79.6875 C 304.304688 77.726562 304.304688 74.5625 302.34375 72.597656 C 300.378906 70.636719 297.214844 70.636719 295.253906 72.597656 L 266.421875 101.402344 C 264.460938 103.367188 264.460938 106.554688 266.421875 108.519531 C 267.402344 109.5 268.679688 109.992188 269.980469 109.992188 Z M 269.980469 109.992188 " fill-opacity="1" fill-rule="nonzero"/><path fill="#f0c419" d="M 102.960938 264.863281 L 74.15625 293.691406 C 72.195312 295.65625 72.195312 298.820312 74.15625 300.785156 C 75.136719 301.765625 76.414062 302.257812 77.691406 302.257812 C 78.992188 302.257812 80.265625 301.765625 81.246094 300.785156 L 110.078125 271.980469 C 112.039062 270.015625 112.039062 266.824219 110.078125 264.863281 C 108.113281 262.898438 104.925781 262.898438 102.960938 264.863281 Z M 102.960938 264.863281 " fill-opacity="1" fill-rule="nonzero"/><path fill="#f0c419" d="M 273.539062 264.863281 C 271.574219 262.898438 268.386719 262.898438 266.421875 264.863281 C 264.460938 266.824219 264.460938 270.015625 266.421875 271.980469 L 295.253906 300.785156 C 296.234375 301.765625 297.507812 302.257812 298.808594 302.257812 C 300.085938 302.257812 301.363281 301.765625 302.34375 300.785156 C 304.304688 298.820312 304.304688 295.65625 302.34375 293.691406 Z M 273.539062 264.863281 " fill-opacity="1" fill-rule="nonzero"/><path fill="#f0c419" d="M 81.246094 72.597656 C 79.285156 70.636719 76.121094 70.636719 74.15625 72.597656 C 72.195312 74.5625 72.195312 77.726562 74.15625 79.6875 L 102.960938 108.519531 C 103.945312 109.5 105.246094 109.992188 106.519531 109.992188 C 107.820312 109.992188 109.097656 109.5 110.078125 108.519531 C 112.039062 106.554688 112.039062 103.367188 110.078125 101.402344 Z M 81.246094 72.597656 " fill-opacity="1" fill-rule="nonzero"/><path fill="#f0c419" d="M 290 143.507812 C 290.835938 145.421875 292.675781 146.550781 294.636719 146.550781 C 295.300781 146.550781 295.964844 146.425781 296.601562 146.15625 L 310.488281 140.269531 C 313.039062 139.1875 314.21875 136.246094 313.140625 133.691406 C 312.058594 131.140625 309.089844 129.9375 306.5625 131.019531 L 292.675781 136.90625 C 290.125 137.988281 288.921875 140.957031 290 143.507812 Z M 290 143.507812 " fill-opacity="1" fill-rule="nonzero"/><path fill="#f0c419" d="M 86.5 229.875 C 85.394531 227.324219 82.449219 226.144531 79.898438 227.226562 L 66.011719 233.113281 C 63.460938 234.191406 62.28125 237.136719 63.359375 239.6875 C 64.171875 241.601562 66.035156 242.757812 68 242.757812 C 68.636719 242.757812 69.296875 242.632812 69.9375 242.363281 L 83.824219 236.476562 C 86.375 235.394531 87.578125 232.425781 86.5 229.875 Z M 86.5 229.875 " fill-opacity="1" fill-rule="nonzero"/><path fill="#f0c419" d="M 311.273438 230.980469 L 297.289062 225.335938 C 294.738281 224.28125 291.792969 225.53125 290.761719 228.109375 C 289.707031 230.683594 290.957031 233.605469 293.535156 234.632812 L 307.519531 240.300781 C 308.132812 240.546875 308.769531 240.671875 309.386719 240.671875 C 311.371094 240.671875 313.261719 239.46875 314.046875 237.503906 C 315.078125 234.953125 313.851562 232.007812 311.273438 230.980469 Z M 311.273438 230.980469 " fill-opacity="1" fill-rule="nonzero"/><path fill="#f0c419" d="M 65.226562 142.402344 L 79.210938 148.046875 C 79.824219 148.316406 80.460938 148.414062 81.074219 148.414062 C 83.089844 148.414062 84.953125 147.238281 85.738281 145.273438 C 86.792969 142.699219 85.542969 139.777344 82.964844 138.746094 L 68.980469 133.078125 C 66.402344 132.050781 63.484375 133.300781 62.453125 135.875 C 61.421875 138.429688 62.648438 141.371094 65.226562 142.402344 Z M 65.226562 142.402344 " fill-opacity="1" fill-rule="nonzero"/><path fill="#f0c419" d="M 238.035156 291.117188 C 236.953125 288.566406 233.984375 287.363281 231.433594 288.441406 C 228.882812 289.546875 227.703125 292.492188 228.785156 295.042969 L 234.671875 308.929688 C 235.480469 310.84375 237.347656 311.972656 239.308594 311.972656 C 239.949219 311.972656 240.609375 311.851562 241.246094 311.578125 C 243.800781 310.5 245.003906 307.554688 243.921875 305.003906 Z M 238.035156 291.117188 " fill-opacity="1" fill-rule="nonzero"/><path fill="#f0c419" d="M 143.101562 85.332031 C 143.742188 85.332031 144.429688 85.210938 145.066406 84.941406 C 147.617188 83.835938 148.796875 80.890625 147.714844 78.339844 L 141.828125 64.453125 C 140.746094 61.902344 137.804688 60.699219 135.25 61.800781 C 132.699219 62.882812 131.496094 65.828125 132.578125 68.378906 L 138.464844 82.265625 C 139.277344 84.179688 141.140625 85.332031 143.101562 85.332031 Z M 143.101562 85.332031 " fill-opacity="1" fill-rule="nonzero"/><path fill="#f0c419" d="M 146.832031 289.203125 C 144.28125 288.171875 141.335938 289.398438 140.304688 291.976562 L 134.636719 305.960938 C 133.609375 308.511719 134.859375 311.457031 137.4375 312.488281 C 138.050781 312.734375 138.6875 312.855469 139.300781 312.855469 C 141.289062 312.855469 143.175781 311.679688 143.960938 309.714844 L 149.605469 295.730469 C 150.660156 293.152344 149.410156 290.234375 146.832031 289.203125 Z M 146.832031 289.203125 " fill-opacity="1" fill-rule="nonzero"/><path fill="#f0c419" d="M 231.53125 84.546875 C 233.519531 84.546875 235.410156 83.371094 236.195312 81.40625 L 241.863281 67.421875 C 242.890625 64.871094 241.640625 61.925781 239.0625 60.894531 C 236.511719 59.839844 233.566406 61.089844 232.539062 63.667969 L 226.894531 77.652344 C 225.839844 80.230469 227.089844 83.148438 229.667969 84.179688 C 230.28125 84.449219 230.917969 84.546875 231.53125 84.546875 Z M 231.53125 84.546875 " fill-opacity="1" fill-rule="nonzero"/><path fill="#f0c419" d="M 288.75 186.691406 C 288.75 242.191406 243.75 287.191406 188.25 287.191406 C 132.75 287.191406 87.75 242.191406 87.75 186.691406 C 87.75 131.191406 132.75 86.191406 188.25 86.191406 C 243.75 86.191406 288.75 131.191406 288.75 186.691406 Z M 288.75 186.691406 " fill-opacity="1" fill-rule="nonzero"/><path fill="#ede21b" d="M 263.625 186.691406 C 263.625 228.328125 229.886719 262.066406 188.25 262.066406 C 146.613281 262.066406 112.875 228.328125 112.875 186.691406 C 112.875 145.054688 146.613281 111.316406 188.25 111.316406 C 229.886719 111.316406 263.625 145.054688 263.625 186.691406 Z M 263.625 186.691406 " fill-opacity="1" fill-rule="nonzero"/></svg>