<svg xmlns="http://www.w3.org/2000/svg" xmlns:xlink="http://www.w3.org/1999/xlink" width="500" zoomAndPan="magnify" viewBox="0 0 375 374.999991" height="500" preserveAspectRatio="xMidYMid meet" version="1.0"><defs><clipPath id="bfee593c6b"><path d="M 37.5 37.5 L 337.5 37.5 L 337.5 337.5 L 37.5 337.5 Z M 37.5 37.5 " clip-rule="nonzero"/></clipPath></defs><g clip-path="url(#bfee593c6b)"><path fill="#265174" d="M 337.5 187.5 C 337.5 189.953125 337.441406 192.410156 337.320312 194.859375 C 337.199219 197.3125 337.019531 199.757812 336.777344 202.203125 C 336.535156 204.644531 336.238281 207.082031 335.875 209.507812 C 335.515625 211.9375 335.097656 214.355469 334.617188 216.761719 C 334.140625 219.171875 333.601562 221.566406 333.003906 223.945312 C 332.40625 226.328125 331.753906 228.695312 331.039062 231.042969 C 330.328125 233.390625 329.558594 235.722656 328.730469 238.035156 C 327.90625 240.34375 327.019531 242.632812 326.082031 244.902344 C 325.140625 247.171875 324.148438 249.414062 323.097656 251.632812 C 322.046875 253.851562 320.945312 256.042969 319.789062 258.210938 C 318.632812 260.375 317.421875 262.507812 316.160156 264.617188 C 314.898438 266.722656 313.585938 268.792969 312.21875 270.835938 C 310.855469 272.875 309.445312 274.882812 307.980469 276.855469 C 306.519531 278.828125 305.007812 280.761719 303.453125 282.660156 C 301.894531 284.554688 300.292969 286.414062 298.644531 288.234375 C 296.992188 290.050781 295.300781 291.832031 293.566406 293.566406 C 291.832031 295.300781 290.050781 296.992188 288.234375 298.644531 C 286.414062 300.292969 284.554688 301.894531 282.660156 303.453125 C 280.761719 305.007812 278.828125 306.519531 276.855469 307.980469 C 274.882812 309.445312 272.875 310.855469 270.835938 312.21875 C 268.792969 313.585938 266.722656 314.898438 264.617188 316.160156 C 262.507812 317.421875 260.375 318.632812 258.210938 319.789062 C 256.042969 320.945312 253.851562 322.046875 251.632812 323.097656 C 249.414062 324.148438 247.171875 325.140625 244.902344 326.082031 C 242.632812 327.019531 240.34375 327.90625 238.035156 328.730469 C 235.722656 329.558594 233.390625 330.328125 231.042969 331.039062 C 228.695312 331.753906 226.328125 332.40625 223.945312 333.003906 C 221.566406 333.601562 219.171875 334.140625 216.761719 334.617188 C 214.355469 335.097656 211.9375 335.515625 209.507812 335.875 C 207.082031 336.238281 204.644531 336.535156 202.203125 336.777344 C 199.757812 337.019531 197.3125 337.199219 194.859375 337.320312 C 192.410156 337.441406 189.953125 337.5 187.5 337.5 C 185.046875 337.5 182.589844 337.441406 180.140625 337.320312 C 177.6875 337.199219 175.242188 337.019531 172.796875 336.777344 C 170.355469 336.535156 167.917969 336.238281 165.492188 335.875 C 163.0625 335.515625 160.644531 335.097656 158.238281 334.617188 C 155.828125 334.140625 153.433594 333.601562 151.054688 333.003906 C 148.671875 332.40625 146.304688 331.753906 143.957031 331.039062 C 141.609375 330.328125 139.277344 329.558594 136.964844 328.730469 C 134.65625 327.90625 132.367188 327.019531 130.097656 326.082031 C 127.828125 325.140625 125.585938 324.148438 123.367188 323.097656 C 121.148438 322.046875 118.957031 320.945312 116.789062 319.789062 C 114.625 318.632812 112.488281 317.421875 110.382812 316.160156 C 108.277344 314.898438 106.207031 313.585938 104.164062 312.21875 C 102.125 310.855469 100.117188 309.445312 98.144531 307.980469 C 96.171875 306.519531 94.238281 305.007812 92.339844 303.453125 C 90.445312 301.894531 88.585938 300.292969 86.765625 298.644531 C 84.945312 296.992188 83.167969 295.300781 81.433594 293.566406 C 79.699219 291.832031 78.007812 290.050781 76.355469 288.234375 C 74.707031 286.414062 73.105469 284.554688 71.546875 282.660156 C 69.992188 280.761719 68.480469 278.828125 67.019531 276.855469 C 65.554688 274.882812 64.144531 272.875 62.78125 270.835938 C 61.414062 268.792969 60.101562 266.722656 58.839844 264.617188 C 57.578125 262.507812 56.367188 260.375 55.210938 258.210938 C 54.054688 256.042969 52.953125 253.851562 51.902344 251.632812 C 50.851562 249.414062 49.859375 247.171875 48.917969 244.902344 C 47.980469 242.632812 47.09375 240.34375 46.269531 238.035156 C 45.441406 235.722656 44.671875 233.390625 43.957031 231.042969 C 43.246094 228.695312 42.589844 226.328125 41.996094 223.945312 C 41.398438 221.566406 40.859375 219.171875 40.382812 216.761719 C 39.902344 214.355469 39.484375 211.9375 39.125 209.507812 C 38.761719 207.082031 38.464844 204.644531 38.222656 202.203125 C 37.980469 199.757812 37.800781 197.3125 37.679688 194.859375 C 37.558594 192.410156 37.5 189.953125 37.5 187.5 C 37.5 185.046875 37.558594 182.589844 37.679688 180.140625 C 37.800781 177.6875 37.980469 175.242188 38.222656 172.796875 C 38.464844 170.355469 38.761719 167.917969 39.125 165.492188 C 39.484375 163.0625 39.902344 160.644531 40.382812 158.238281 C 40.859375 155.828125 41.398438 153.433594 41.996094 151.054688 C 42.589844 148.671875 43.246094 146.304688 43.957031 143.957031 C 44.671875 141.609375 45.441406 139.277344 46.269531 136.964844 C 47.09375 134.65625 47.980469 132.367188 48.917969 130.097656 C 49.859375 127.828125 50.851562 125.585938 51.902344 123.367188 C 52.953125 121.148438 54.054688 118.957031 55.210938 116.789062 C 56.367188 114.625 57.578125 112.488281 58.839844 110.382812 C 60.101562 108.277344 61.414062 106.207031 62.78125 104.164062 C 64.144531 102.125 65.554688 100.117188 67.019531 98.144531 C 68.480469 96.171875 69.992188 94.238281 71.546875 92.339844 C 73.105469 90.445312 74.707031 88.585938 76.355469 86.765625 C 78.007812 84.945312 79.699219 83.167969 81.433594 81.433594 C 83.167969 79.699219 84.945312 78.007812 86.765625 76.355469 C 88.585938 74.707031 90.445312 73.105469 92.339844 71.546875 C 94.238281 69.992188 96.171875 68.480469 98.144531 67.019531 C 100.117188 65.554688 102.125 64.144531 104.164062 62.78125 C 106.207031 61.414062 108.277344 60.101562 110.382812 58.839844 C 112.488281 57.578125 114.625 56.367188 116.789062 55.210938 C 118.957031 54.054688 121.148438 52.953125 123.367188 51.902344 C 125.585938 50.851562 127.828125 49.859375 130.097656 48.917969 C 132.367188 47.980469 134.65625 47.09375 136.964844 46.269531 C 139.277344 45.441406 141.609375 44.671875 143.957031 43.957031 C 146.304688 43.246094 148.671875 42.589844 151.054688 41.996094 C 153.433594 41.398438 155.828125 40.859375 158.238281 40.382812 C 160.644531 39.902344 163.0625 39.484375 165.492188 39.125 C 167.917969 38.761719 170.355469 38.464844 172.796875 38.222656 C 175.242188 37.980469 177.6875 37.800781 180.140625 37.679688 C 182.589844 37.558594 185.046875 37.5 187.5 37.5 C 189.953125 37.5 192.410156 37.558594 194.859375 37.679688 C 197.3125 37.800781 199.757812 37.980469 202.203125 38.222656 C 204.644531 38.464844 207.082031 38.761719 209.507812 39.125 C 211.9375 39.484375 214.355469 39.902344 216.761719 40.382812 C 219.171875 40.859375 221.566406 41.398438 223.945312 41.996094 C 226.328125 42.589844 228.695312 43.246094 231.042969 43.957031 C 233.390625 44.671875 235.722656 45.441406 238.035156 46.269531 C 240.34375 47.09375 242.632812 47.980469 244.902344 48.917969 C 247.171875 49.859375 249.414062 50.851562 251.632812 51.902344 C 253.851562 52.953125 256.042969 54.054688 258.210938 55.210938 C 260.375 56.367188 262.507812 57.578125 264.617188 58.839844 C 266.722656 60.101562 268.792969 61.414062 270.835938 62.78125 C 272.875 64.144531 274.882812 65.554688 276.855469 67.019531 C 278.828125 68.480469 280.761719 69.992188 282.660156 71.546875 C 284.554688 73.105469 286.414062 74.707031 288.234375 76.355469 C 290.050781 78.007812 291.832031 79.699219 293.566406 81.433594 C 295.300781 83.167969 296.992188 84.945312 298.644531 86.765625 C 300.292969 88.585938 301.894531 90.445312 303.453125 92.339844 C 305.007812 94.238281 306.519531 96.171875 307.980469 98.144531 C 309.445312 100.117188 310.855469 102.125 312.21875 104.164062 C 313.585938 106.207031 314.898438 108.277344 316.160156 110.382812 C 317.421875 112.488281 318.632812 114.625 319.789062 116.789062 C 320.945312 118.957031 322.046875 121.148438 323.097656 123.367188 C 324.148438 125.585938 325.140625 127.828125 326.082031 130.097656 C 327.019531 132.367188 327.90625 134.65625 328.730469 136.964844 C 329.558594 139.277344 330.328125 141.609375 331.039062 143.957031 C 331.753906 146.304688 332.40625 148.671875 333.003906 151.054688 C 333.601562 153.433594 334.140625 155.828125 334.617188 158.238281 C 335.097656 160.644531 335.515625 163.0625 335.875 165.492188 C 336.238281 167.917969 336.535156 170.355469 336.777344 172.796875 C 337.019531 175.242188 337.199219 177.6875 337.320312 180.140625 C 337.441406 182.589844 337.5 185.046875 337.5 187.5 Z M 337.5 187.5 " fill-opacity="1" fill-rule="nonzero"/></g><path fill="#fefefe" d="M 281.234375 264.246094 L 93.765625 264.246094 C 92.527344 264.246094 91.511719 263.230469 91.511719 261.992188 L 91.511719 247.363281 C 91.511719 246.128906 92.527344 245.113281 93.765625 245.113281 L 281.234375 245.113281 C 282.472656 245.113281 283.488281 246.128906 283.488281 247.363281 L 283.488281 261.992188 C 283.488281 263.230469 282.472656 264.246094 281.234375 264.246094 Z M 281.234375 264.246094 " fill-opacity="1" fill-rule="evenodd"/><path fill="#fefefe" d="M 151.378906 249.617188 C 150.140625 249.617188 110.191406 250.179688 110.191406 246.800781 L 110.191406 119.871094 C 110.191406 115.820312 113.457031 112.554688 117.394531 112.554688 L 146.988281 112.554688 C 150.929688 112.554688 154.191406 115.820312 154.191406 119.871094 L 154.191406 246.800781 C 154.191406 248.265625 152.953125 249.617188 151.378906 249.617188 Z M 141.136719 172.421875 L 123.246094 172.421875 C 120.320312 172.421875 120.320312 167.921875 123.246094 167.921875 L 141.136719 167.921875 C 144.0625 167.921875 144.0625 172.421875 141.136719 172.421875 Z M 141.136719 161.28125 L 123.246094 161.28125 C 120.320312 161.28125 120.320312 156.78125 123.246094 156.78125 L 141.136719 156.78125 C 144.0625 156.78125 144.0625 161.28125 141.136719 161.28125 Z M 132.136719 145.976562 C 125.609375 145.976562 120.320312 140.574219 120.320312 133.9375 C 120.320312 127.296875 125.609375 121.894531 132.136719 121.894531 C 138.773438 121.894531 144.0625 127.296875 144.0625 133.9375 C 144.0625 140.574219 138.773438 145.976562 132.136719 145.976562 Z M 132.136719 126.285156 C 122.457031 126.285156 122.457031 141.476562 132.136719 141.476562 C 141.925781 141.476562 141.925781 126.285156 132.136719 126.285156 Z M 140.574219 240.277344 L 123.808594 240.277344 C 121.785156 240.277344 119.984375 238.585938 119.984375 236.449219 L 119.984375 183.898438 C 119.984375 181.761719 121.785156 180.074219 123.808594 180.074219 L 140.574219 180.074219 C 142.601562 180.074219 144.402344 181.761719 144.402344 183.898438 L 144.402344 236.449219 C 144.402344 238.585938 142.601562 240.277344 140.574219 240.277344 Z M 124.484375 235.773438 L 139.902344 235.773438 L 139.902344 184.574219 L 124.484375 184.574219 Z M 140.574219 184.574219 Z M 140.574219 184.574219 " fill-opacity="1" fill-rule="evenodd"/><path fill="#fefefe" d="M 190.875 249.617188 C 189.636719 249.617188 149.691406 250.179688 149.691406 246.800781 L 149.691406 119.871094 C 149.691406 115.820312 152.953125 112.554688 156.890625 112.554688 L 186.488281 112.554688 C 190.425781 112.554688 193.6875 115.820312 193.6875 119.871094 L 193.6875 246.800781 C 193.6875 248.265625 192.453125 249.617188 190.875 249.617188 Z M 180.636719 173.546875 L 162.742188 173.546875 C 159.816406 173.546875 159.816406 169.046875 162.742188 169.046875 L 180.636719 169.046875 C 183.5625 169.046875 183.5625 173.546875 180.636719 173.546875 Z M 180.636719 162.292969 L 162.742188 162.292969 C 159.816406 162.292969 159.816406 157.792969 162.742188 157.792969 L 180.636719 157.792969 C 183.5625 157.792969 183.5625 162.292969 180.636719 162.292969 Z M 171.746094 147.101562 C 165.105469 147.101562 159.816406 141.589844 159.816406 134.949219 C 159.816406 128.308594 165.105469 122.910156 171.746094 122.910156 C 178.273438 122.910156 183.5625 128.308594 183.5625 134.949219 C 183.5625 141.589844 178.273438 147.101562 171.746094 147.101562 Z M 171.746094 127.410156 C 161.957031 127.410156 161.957031 142.601562 171.746094 142.601562 C 181.421875 142.601562 181.421875 127.410156 171.746094 127.410156 Z M 180.074219 241.402344 L 163.304688 241.402344 C 161.28125 241.402344 159.480469 239.714844 159.480469 237.574219 L 159.480469 184.910156 C 159.480469 182.886719 161.28125 181.085938 163.304688 181.085938 L 180.074219 181.085938 C 182.097656 181.085938 183.898438 182.886719 183.898438 184.910156 L 183.898438 237.574219 C 183.898438 239.714844 182.097656 241.402344 180.074219 241.402344 Z M 163.980469 236.898438 L 179.398438 236.898438 L 179.398438 185.585938 L 163.980469 185.585938 Z M 180.074219 185.585938 Z M 180.074219 185.585938 " fill-opacity="1" fill-rule="evenodd"/><path fill="#fefefe" d="M 223.847656 249.617188 C 222.832031 249.617188 221.933594 248.941406 221.707031 247.925781 L 189.414062 127.636719 C 188.398438 123.695312 190.652344 119.757812 194.589844 118.746094 L 223.058594 111.09375 C 226.996094 110.082031 230.9375 112.332031 231.949219 116.15625 L 264.808594 238.8125 C 265.144531 240.277344 264.355469 241.851562 262.78125 242.300781 L 235.886719 249.503906 C 232.960938 250.289062 225.308594 249.617188 223.847656 249.617188 Z M 215.40625 176.132812 C 212.707031 176.132812 212.257812 172.421875 214.730469 171.746094 L 232.0625 167.132812 C 234.988281 166.34375 236.113281 170.734375 233.1875 171.519531 Z M 212.480469 165.332031 C 209.894531 165.332031 209.332031 161.617188 211.917969 160.941406 L 229.136719 156.328125 C 232.0625 155.542969 233.1875 159.929688 230.375 160.605469 Z M 214.730469 148.566406 C 201.003906 148.566406 198.078125 128.535156 211.46875 124.933594 C 217.882812 123.246094 224.410156 127.074219 226.097656 133.488281 C 228.121094 141.136719 222.496094 148.566406 214.730469 148.566406 Z M 212.707031 129.210938 C 203.140625 131.796875 207.304688 146.316406 216.53125 143.839844 C 225.984375 141.363281 222.046875 126.734375 212.707031 129.210938 Z M 233.074219 241.625 C 231.386719 241.625 229.8125 240.5 229.359375 238.8125 L 215.855469 187.949219 C 215.292969 185.925781 216.417969 183.785156 218.558594 183.222656 L 234.648438 178.949219 C 236.675781 178.386719 238.8125 179.621094 239.261719 181.648438 L 252.878906 232.511719 C 253.441406 234.535156 252.203125 236.675781 250.179688 237.125 Z M 220.359375 187.5 L 233.636719 237.011719 L 248.378906 232.960938 L 235.097656 183.449219 Z M 219.121094 185.472656 Z M 219.121094 185.472656 " fill-opacity="1" fill-rule="evenodd"/></svg>