<svg xmlns="http://www.w3.org/2000/svg" xmlns:xlink="http://www.w3.org/1999/xlink" width="500" zoomAndPan="magnify" viewBox="0 0 375 374.999991" height="500" preserveAspectRatio="xMidYMid meet" version="1.0"><defs><clipPath id="59008ee8b4"><path d="M 40.773438 40.773438 L 334.023438 40.773438 L 334.023438 334.023438 L 40.773438 334.023438 Z M 40.773438 40.773438 " clip-rule="nonzero"/></clipPath><clipPath id="69addeb039"><path d="M 40.773438 37.5 L 340.773438 37.5 L 340.773438 337.5 L 40.773438 337.5 Z M 40.773438 37.5 " clip-rule="nonzero"/></clipPath></defs><g clip-path="url(#59008ee8b4)"><path fill="#ff0000" d="M 334.023438 187.398438 C 334.023438 189.796875 333.964844 192.195312 333.847656 194.59375 C 333.726562 196.988281 333.550781 199.382812 333.316406 201.769531 C 333.082031 204.15625 332.789062 206.539062 332.4375 208.914062 C 332.082031 211.285156 331.671875 213.648438 331.207031 216.003906 C 330.738281 218.355469 330.210938 220.695312 329.628906 223.023438 C 329.046875 225.351562 328.40625 227.664062 327.710938 229.960938 C 327.011719 232.257812 326.261719 234.535156 325.453125 236.792969 C 324.644531 239.054688 323.78125 241.292969 322.863281 243.507812 C 321.941406 245.726562 320.972656 247.917969 319.945312 250.089844 C 318.917969 252.257812 317.839844 254.398438 316.710938 256.515625 C 315.578125 258.632812 314.394531 260.71875 313.164062 262.777344 C 311.929688 264.835938 310.644531 266.863281 309.3125 268.859375 C 307.980469 270.855469 306.597656 272.816406 305.167969 274.742188 C 303.738281 276.667969 302.261719 278.5625 300.742188 280.414062 C 299.21875 282.269531 297.652344 284.085938 296.039062 285.863281 C 294.429688 287.644531 292.773438 289.378906 291.078125 291.078125 C 289.378906 292.773438 287.644531 294.429688 285.863281 296.039062 C 284.085938 297.652344 282.269531 299.21875 280.414062 300.742188 C 278.5625 302.261719 276.667969 303.738281 274.742188 305.167969 C 272.816406 306.597656 270.851562 307.980469 268.859375 309.3125 C 266.863281 310.644531 264.835938 311.929688 262.777344 313.164062 C 260.71875 314.394531 258.632812 315.578125 256.515625 316.710938 C 254.398438 317.839844 252.257812 318.917969 250.089844 319.945312 C 247.917969 320.972656 245.726562 321.941406 243.507812 322.863281 C 241.292969 323.78125 239.054688 324.644531 236.792969 325.453125 C 234.535156 326.261719 232.257812 327.011719 229.960938 327.710938 C 227.664062 328.40625 225.351562 329.046875 223.023438 329.628906 C 220.695312 330.210938 218.355469 330.738281 216.003906 331.207031 C 213.648438 331.671875 211.285156 332.082031 208.914062 332.4375 C 206.539062 332.789062 204.15625 333.082031 201.769531 333.316406 C 199.382812 333.550781 196.988281 333.726562 194.59375 333.847656 C 192.195312 333.964844 189.796875 334.023438 187.398438 334.023438 C 185 334.023438 182.601562 333.964844 180.203125 333.847656 C 177.804688 333.726562 175.414062 333.550781 173.027344 333.316406 C 170.636719 333.082031 168.257812 332.789062 165.882812 332.4375 C 163.511719 332.082031 161.144531 331.671875 158.792969 331.207031 C 156.4375 330.738281 154.097656 330.210938 151.769531 329.628906 C 149.441406 329.046875 147.132812 328.40625 144.835938 327.710938 C 142.539062 327.011719 140.261719 326.261719 138 325.453125 C 135.742188 324.644531 133.503906 323.78125 131.285156 322.863281 C 129.070312 321.941406 126.875 320.972656 124.707031 319.945312 C 122.539062 318.917969 120.394531 317.839844 118.277344 316.710938 C 116.164062 315.578125 114.074219 314.394531 112.015625 313.164062 C 109.960938 311.929688 107.933594 310.644531 105.9375 309.3125 C 103.941406 307.980469 101.980469 306.597656 100.054688 305.167969 C 98.125 303.738281 96.234375 302.261719 94.378906 300.742188 C 92.523438 299.21875 90.707031 297.652344 88.929688 296.039062 C 87.152344 294.429688 85.414062 292.773438 83.71875 291.078125 C 82.023438 289.378906 80.367188 287.644531 78.757812 285.863281 C 77.144531 284.085938 75.578125 282.269531 74.054688 280.414062 C 72.53125 278.5625 71.058594 276.667969 69.628906 274.742188 C 68.199219 272.816406 66.816406 270.855469 65.484375 268.859375 C 64.152344 266.863281 62.867188 264.835938 61.632812 262.777344 C 60.398438 260.71875 59.21875 258.632812 58.085938 256.515625 C 56.953125 254.398438 55.875 252.257812 54.851562 250.089844 C 53.824219 247.917969 52.851562 245.726562 51.933594 243.507812 C 51.015625 241.292969 50.152344 239.054688 49.34375 236.792969 C 48.535156 234.535156 47.78125 232.257812 47.085938 229.960938 C 46.390625 227.664062 45.75 225.351562 45.167969 223.023438 C 44.582031 220.695312 44.058594 218.355469 43.589844 216.003906 C 43.121094 213.648438 42.710938 211.285156 42.359375 208.914062 C 42.007812 206.539062 41.714844 204.15625 41.480469 201.769531 C 41.242188 199.382812 41.066406 196.988281 40.949219 194.59375 C 40.832031 192.195312 40.773438 189.796875 40.773438 187.398438 C 40.773438 185 40.832031 182.601562 40.949219 180.203125 C 41.066406 177.804688 41.242188 175.414062 41.480469 173.027344 C 41.714844 170.636719 42.007812 168.257812 42.359375 165.882812 C 42.710938 163.511719 43.121094 161.144531 43.589844 158.792969 C 44.058594 156.4375 44.582031 154.097656 45.167969 151.769531 C 45.75 149.441406 46.390625 147.132812 47.085938 144.835938 C 47.78125 142.539062 48.535156 140.261719 49.34375 138 C 50.152344 135.742188 51.015625 133.503906 51.933594 131.285156 C 52.851562 129.070312 53.824219 126.875 54.851562 124.707031 C 55.875 122.539062 56.953125 120.394531 58.085938 118.277344 C 59.21875 116.164062 60.398438 114.074219 61.632812 112.015625 C 62.867188 109.960938 64.152344 107.933594 65.484375 105.9375 C 66.816406 103.941406 68.199219 101.980469 69.628906 100.054688 C 71.058594 98.125 72.53125 96.234375 74.054688 94.378906 C 75.578125 92.523438 77.144531 90.707031 78.757812 88.929688 C 80.367188 87.152344 82.023438 85.414062 83.71875 83.71875 C 85.414062 82.023438 87.152344 80.367188 88.929688 78.757812 C 90.707031 77.144531 92.523438 75.578125 94.378906 74.054688 C 96.234375 72.53125 98.125 71.058594 100.054688 69.628906 C 101.980469 68.199219 103.941406 66.816406 105.9375 65.484375 C 107.933594 64.152344 109.960938 62.867188 112.015625 61.632812 C 114.074219 60.398438 116.164062 59.21875 118.277344 58.085938 C 120.394531 56.953125 122.539062 55.875 124.707031 54.851562 C 126.875 53.824219 129.070312 52.851562 131.285156 51.933594 C 133.503906 51.015625 135.742188 50.152344 138 49.34375 C 140.261719 48.535156 142.539062 47.78125 144.835938 47.085938 C 147.132812 46.390625 149.441406 45.75 151.769531 45.167969 C 154.097656 44.582031 156.4375 44.058594 158.792969 43.589844 C 161.144531 43.121094 163.511719 42.710938 165.882812 42.359375 C 168.257812 42.007812 170.636719 41.714844 173.027344 41.480469 C 175.414062 41.242188 177.804688 41.066406 180.203125 40.949219 C 182.601562 40.832031 185 40.773438 187.398438 40.773438 C 189.796875 40.773438 192.195312 40.832031 194.59375 40.949219 C 196.988281 41.066406 199.382812 41.242188 201.769531 41.480469 C 204.15625 41.714844 206.539062 42.007812 208.914062 42.359375 C 211.285156 42.710938 213.648438 43.121094 216.003906 43.589844 C 218.355469 44.058594 220.695312 44.582031 223.023438 45.167969 C 225.351562 45.75 227.664062 46.390625 229.960938 47.085938 C 232.257812 47.78125 234.535156 48.535156 236.792969 49.34375 C 239.054688 50.152344 241.292969 51.015625 243.507812 51.933594 C 245.726562 52.851562 247.917969 53.824219 250.089844 54.851562 C 252.257812 55.875 254.398438 56.953125 256.515625 58.085938 C 258.632812 59.21875 260.71875 60.398438 262.777344 61.632812 C 264.835938 62.867188 266.863281 64.152344 268.859375 65.484375 C 270.851562 66.816406 272.816406 68.199219 274.742188 69.628906 C 276.667969 71.058594 278.5625 72.53125 280.414062 74.054688 C 282.269531 75.578125 284.085938 77.144531 285.863281 78.757812 C 287.644531 80.367188 289.378906 82.023438 291.078125 83.71875 C 292.773438 85.414062 294.429688 87.152344 296.039062 88.929688 C 297.652344 90.707031 299.21875 92.523438 300.742188 94.378906 C 302.261719 96.234375 303.738281 98.125 305.167969 100.054688 C 306.597656 101.980469 307.980469 103.941406 309.3125 105.9375 C 310.644531 107.933594 311.929688 109.960938 313.164062 112.015625 C 314.394531 114.074219 315.578125 116.164062 316.710938 118.277344 C 317.839844 120.394531 318.917969 122.539062 319.945312 124.707031 C 320.972656 126.875 321.941406 129.070312 322.863281 131.285156 C 323.78125 133.503906 324.644531 135.742188 325.453125 138 C 326.261719 140.261719 327.011719 142.539062 327.710938 144.835938 C 328.40625 147.132812 329.046875 149.441406 329.628906 151.769531 C 330.210938 154.097656 330.738281 156.4375 331.207031 158.792969 C 331.671875 161.144531 332.082031 163.511719 332.4375 165.882812 C 332.789062 168.257812 333.082031 170.636719 333.316406 173.027344 C 333.550781 175.414062 333.726562 177.804688 333.847656 180.203125 C 333.964844 182.601562 334.023438 185 334.023438 187.398438 Z M 334.023438 187.398438 " fill-opacity="1" fill-rule="nonzero"/></g><path fill="#f7fff7" d="M 172.339844 265.347656 C 172.339844 254.449219 180.144531 246.570312 190.765625 246.570312 C 202.007812 246.570312 209.195312 254.449219 209.195312 265.347656 C 209.195312 275.949219 202.007812 284.125 190.765625 284.125 C 179.832031 284.125 172.339844 275.949219 172.339844 265.347656 Z M 178.753906 219.710938 L 170.082031 111.921875 C 169.648438 106.53125 179.121094 102.136719 190.765625 102.136719 C 202.417969 102.136719 211.882812 106.558594 211.453125 111.921875 L 202.777344 219.710938 C 202.480469 223.371094 197.210938 226.253906 190.765625 226.253906 C 184.335938 226.253906 179.050781 223.371094 178.753906 219.710938 Z M 178.753906 219.710938 " fill-opacity="1" fill-rule="nonzero"/><g clip-path="url(#69addeb039)"><path fill="#9f1c2b" d="M 190.765625 337.488281 C 108.058594 337.488281 40.773438 270.199219 40.773438 187.492188 C 40.773438 104.785156 108.058594 37.5 190.765625 37.5 C 273.472656 37.5 340.757812 104.785156 340.757812 187.492188 C 340.757812 270.199219 273.472656 337.488281 190.765625 337.488281 Z M 190.765625 63.070312 C 122.160156 63.070312 66.34375 118.886719 66.34375 187.492188 C 66.34375 256.101562 122.160156 311.914062 190.765625 311.914062 C 259.375 311.914062 315.1875 256.101562 315.1875 187.492188 C 315.1875 118.886719 259.375 63.070312 190.765625 63.070312 Z M 190.765625 63.070312 " fill-opacity="1" fill-rule="nonzero"/></g></svg>