<svg xmlns="http://www.w3.org/2000/svg" xmlns:xlink="http://www.w3.org/1999/xlink" width="500" zoomAndPan="magnify" viewBox="0 0 375 374.999991" height="500" preserveAspectRatio="xMidYMid meet" version="1.0"><path fill="#be0006" d="M 81.5 131.898438 C 77.566406 142.113281 67.667969 146.835938 59.929688 154.574219 C 52.578125 161.925781 47.039062 173.707031 44.140625 183.546875 C 38.140625 203.976562 40.3125 226.304688 50.722656 244.929688 C 60.402344 262.246094 76.898438 274.324219 95.996094 279.359375 C 132.519531 288.992188 175.96875 271.871094 206.703125 293.824219 C 224.625 306.628906 233.828125 330.503906 254.152344 338.988281 C 279.671875 349.648438 308.902344 329.234375 320.65625 304.214844 C 336.625 270.195312 331.105469 229.613281 317.265625 194.667969 C 303.429688 159.726562 281.964844 128.378906 265.34375 94.675781 C 254.664062 73.011719 244.609375 48.804688 223.550781 36.957031 C 202.316406 24.992188 175.34375 29.289062 153.203125 39.476562 C 134.589844 48.050781 116.585938 60.464844 102.710938 75.617188 C 93.824219 85.328125 86.785156 97.121094 84.707031 110.128906 C 83.757812 116.042969 83.851562 122.132812 82.636719 128.011719 C 82.367188 129.339844 81.988281 130.632812 81.5 131.898438 Z M 81.5 131.898438 " fill-opacity="1" fill-rule="nonzero"/><path fill="#cb320e" d="M 301.234375 284.746094 C 295.515625 296.21875 285.339844 306.328125 273.773438 311.59375 C 264.644531 315.753906 254.621094 316.882812 245.167969 313.144531 C 228.136719 306.417969 219.972656 287.320312 204.851562 277.023438 C 179.042969 259.371094 143.058594 272.917969 112.808594 264.566406 C 96.476562 260.054688 82.617188 249.550781 74.496094 234.796875 C 65.738281 218.878906 63.949219 199.847656 69.003906 182.378906 C 69.734375 179.863281 70.59375 177.390625 71.585938 174.960938 C 74.1875 168.566406 77.816406 162.125 82.230469 157.519531 C 88.675781 150.828125 96.902344 146.582031 100.410156 137.96875 C 100.847656 136.90625 101.203125 135.8125 101.46875 134.691406 C 102.652344 129.746094 102.824219 124.667969 103.808594 119.71875 C 105.953125 108.964844 112.003906 99.265625 119.578125 91.339844 C 131.484375 78.960938 146.714844 69.078125 162.414062 62.503906 C 180.984375 54.65625 203.390625 51.777344 221.136719 62.03125 C 238.585938 72.066406 247.183594 92.078125 256.210938 110.089844 C 270.308594 138.210938 288.085938 164.539062 299.441406 193.59375 C 301.980469 200.082031 304.109375 206.703125 305.832031 213.457031 C 311.898438 237.441406 312.058594 262.984375 301.234375 284.746094 Z M 301.234375 284.746094 " fill-opacity="1" fill-rule="nonzero"/><path fill="#d86316" d="M 281.800781 265.300781 C 276.917969 274.28125 268.566406 281.984375 259.199219 286.019531 C 251.84375 289.199219 243.800781 290.09375 236.179688 287.328125 C 222.433594 282.339844 215.296875 268.074219 202.988281 260.253906 C 182.066406 246.949219 153.597656 256.855469 129.609375 249.800781 C 116.046875 245.804688 104.820312 236.890625 98.261719 224.699219 C 91.164062 211.488281 89.757812 195.757812 93.859375 181.242188 C 94.453125 179.152344 95.148438 177.101562 95.953125 175.082031 C 98.054688 169.777344 100.980469 164.441406 104.527344 160.507812 C 109.664062 154.84375 116.238281 151.070312 119.316406 144.082031 C 119.699219 143.21875 120.023438 142.332031 120.285156 141.421875 C 121.4375 137.414062 121.875 133.332031 122.902344 129.363281 C 125.101562 120.84375 130.15625 113.230469 136.429688 107.132812 C 146.34375 97.5 158.847656 90.238281 171.625 85.609375 C 186.644531 80.15625 204.453125 78.65625 218.71875 87.175781 C 232.539062 95.429688 239.703125 111.214844 247.082031 125.582031 C 258.667969 148.085938 272.753906 169.390625 281.636719 192.5625 C 283.632812 197.78125 285.296875 203.101562 286.632812 208.523438 C 291.289062 227.738281 290.988281 248.296875 281.800781 265.300781 Z M 281.800781 265.300781 " fill-opacity="1" fill-rule="nonzero"/><path fill="#e5951e" d="M 262.355469 245.957031 C 258.324219 252.460938 251.785156 257.71875 244.609375 260.523438 C 239.019531 262.707031 232.964844 263.386719 227.160156 261.589844 C 216.707031 258.335938 210.597656 248.875 201.101562 243.554688 C 185.101562 234.585938 164.09375 240.828125 146.386719 235.105469 C 135.589844 231.617188 127 224.300781 121.988281 214.671875 C 116.535156 204.171875 115.523438 191.738281 118.675781 180.160156 C 119.105469 178.566406 119.640625 176.910156 120.269531 175.261719 C 121.875 171.039062 124.074219 166.804688 126.777344 163.550781 C 130.621094 158.929688 135.503906 155.617188 138.171875 150.246094 C 138.503906 149.578125 138.800781 148.894531 139.058594 148.195312 C 140.179688 145.121094 140.878906 142.039062 141.953125 139.03125 C 144.199219 132.757812 148.277344 127.234375 153.246094 122.9375 C 161.183594 116.066406 170.925781 111.386719 180.769531 108.726562 C 192.214844 105.628906 205.445312 105.523438 216.234375 112.339844 C 226.441406 118.785156 232.160156 130.371094 237.886719 141.082031 C 246.941406 158.019531 257.34375 174.277344 263.742188 191.578125 C 265.195312 195.519531 266.394531 199.539062 267.339844 203.632812 C 270.652344 218.140625 269.917969 233.730469 262.355469 245.957031 Z M 262.355469 245.957031 " fill-opacity="1" fill-rule="nonzero"/><path fill="#f2c626" d="M 242.835938 226.898438 C 239.644531 230.90625 234.933594 233.757812 229.957031 235.324219 C 226.140625 236.527344 222.0625 236.976562 218.097656 236.152344 C 210.933594 234.671875 205.882812 229.992188 199.167969 227.167969 C 188.097656 222.503906 174.574219 225.03125 163.121094 220.722656 C 161.230469 220.027344 159.421875 219.15625 157.699219 218.113281 C 155.976562 217.070312 154.367188 215.875 152.871094 214.523438 C 151.375 213.171875 150.023438 211.691406 148.8125 210.082031 C 147.601562 208.472656 146.554688 206.761719 145.671875 204.949219 C 141.875 197.160156 141.238281 188.023438 143.453125 179.394531 C 143.746094 178.210938 144.125 176.976562 144.554688 175.757812 C 145.628906 172.605469 147.109375 169.65625 148.992188 166.910156 C 151.53125 163.335938 154.753906 160.488281 156.992188 156.734375 C 157.269531 156.269531 157.535156 155.789062 157.789062 155.300781 C 158.882812 153.160156 159.824219 151.074219 160.957031 149.054688 C 163.203125 145.035156 166.21875 141.71875 170.007812 139.097656 C 175.988281 135.003906 182.9375 132.867188 189.878906 132.195312 C 197.738281 131.441406 206.417969 132.734375 213.722656 137.859375 C 220.316406 142.484375 224.582031 149.871094 228.652344 156.941406 C 235.199219 168.246094 241.960938 179.496094 245.835938 190.910156 C 246.75 193.578125 247.484375 196.292969 248.039062 199.058594 C 249.964844 208.835938 248.773438 219.449219 242.835938 226.898438 Z M 242.835938 226.898438 " fill-opacity="1" fill-rule="nonzero"/><path fill="#fff82e" d="M 168.707031 177.472656 C 170.660156 170.867188 174.589844 164.648438 179.832031 160.285156 C 190.019531 151.820312 201.691406 155.964844 211.078125 164.585938 C 220.464844 173.203125 227.566406 186.292969 228.597656 195.714844 C 229.148438 200.738281 227.464844 206.355469 223.191406 209.070312 C 220.828125 210.574219 217.960938 211.039062 215.175781 211.355469 C 209.433594 212.011719 203.207031 212.425781 197.09375 212 C 190.980469 211.570312 184.984375 210.292969 179.710938 207.5625 C 167.867188 201.425781 165.347656 188.871094 168.707031 177.472656 Z M 168.707031 177.472656 " fill-opacity="1" fill-rule="nonzero"/></svg>