<svg xmlns="http://www.w3.org/2000/svg" xmlns:xlink="http://www.w3.org/1999/xlink" width="500" zoomAndPan="magnify" viewBox="0 0 375 374.999991" height="500" preserveAspectRatio="xMidYMid meet" version="1.0"><defs><clipPath id="451abfb204"><path d="M 50 18.75 L 324 18.75 L 324 356.25 L 50 356.25 Z M 50 18.75 " clip-rule="nonzero"/></clipPath></defs><rect x="-37.5" width="450" fill="#ffffff" y="-37.499999" height="449.999989" fill-opacity="1"/><rect x="-37.5" width="450" fill="#ffffff" y="-37.499999" height="449.999989" fill-opacity="1"/><rect x="-37.5" width="450" fill="#fff3f3" y="-37.499999" height="449.999989" fill-opacity="1"/><g clip-path="url(#451abfb204)"><path fill="#4f1964" d="M 215.632812 249.105469 L 157.90625 249.105469 L 157.90625 219.4375 C 157.90625 190.179688 133.988281 165.867188 104.300781 165.867188 C 75.023438 165.867188 50.695312 189.765625 50.695312 219.4375 L 50.695312 220.671875 C 50.695312 249.929688 74.609375 274.246094 104.300781 274.246094 L 132.75 274.246094 L 132.75 356.664062 L 199.140625 356.664062 C 221.820312 356.664062 240.375 338.117188 240.375 315.453125 L 240.375 274.246094 L 270.0625 274.246094 C 299.339844 274.246094 323.667969 250.34375 323.667969 220.671875 L 323.667969 72.320312 C 323.667969 43.0625 299.753906 18.75 270.0625 18.75 L 268.828125 18.75 C 239.550781 18.75 215.222656 42.652344 215.222656 72.320312 L 215.222656 249.105469 Z M 240.375 249.105469 L 240.375 72.320312 C 240.375 56.660156 253.15625 43.886719 268.828125 43.886719 L 270.0625 43.886719 C 285.734375 43.886719 298.515625 56.660156 298.515625 72.320312 L 298.515625 220.671875 C 298.515625 236.332031 285.734375 249.105469 270.0625 249.105469 Z M 132.75 219.4375 L 132.75 249.105469 L 104.300781 249.105469 C 88.628906 249.105469 75.847656 236.332031 75.847656 220.671875 L 75.847656 219.4375 C 75.847656 203.777344 88.628906 191.003906 104.300781 191.003906 C 119.96875 191.003906 132.75 203.777344 132.75 219.4375 Z M 157.90625 273.832031 L 215.632812 273.832031 L 215.632812 315.042969 C 215.632812 324.105469 208.210938 331.523438 199.140625 331.523438 L 157.90625 331.523438 Z M 157.90625 273.832031 " fill-opacity="1" fill-rule="evenodd"/></g></svg>