<svg xmlns="http://www.w3.org/2000/svg" xmlns:xlink="http://www.w3.org/1999/xlink" width="500" zoomAndPan="magnify" viewBox="0 0 375 374.999991" height="500" preserveAspectRatio="xMidYMid meet" version="1.0"><defs><clipPath id="dda57d24c0"><path d="M 87 108 L 326.496094 108 L 326.496094 145 L 87 145 Z M 87 108 " clip-rule="nonzero"/></clipPath><clipPath id="1642f9e382"><path d="M 87 190 L 326.496094 190 L 326.496094 228 L 87 228 Z M 87 190 " clip-rule="nonzero"/></clipPath><clipPath id="ce75b6d408"><path d="M 86 273 L 326 273 L 326 309.804688 L 86 309.804688 Z M 86 273 " clip-rule="nonzero"/></clipPath><clipPath id="39e91bab64"><path d="M 48.246094 65.304688 L 84 65.304688 L 84 101 L 48.246094 101 Z M 48.246094 65.304688 " clip-rule="nonzero"/></clipPath><clipPath id="c37e1edebb"><path d="M 48.246094 107 L 84 107 L 84 142 L 48.246094 142 Z M 48.246094 107 " clip-rule="nonzero"/></clipPath><clipPath id="cdc44ec03f"><path d="M 48.246094 230 L 84 230 L 84 266 L 48.246094 266 Z M 48.246094 230 " clip-rule="nonzero"/></clipPath><clipPath id="5e33f4363e"><path d="M 48.246094 272 L 84 272 L 84 308 L 48.246094 308 Z M 48.246094 272 " clip-rule="nonzero"/></clipPath><clipPath id="3fb0b60523"><path d="M 48.246094 148 L 84 148 L 84 184 L 48.246094 184 Z M 48.246094 148 " clip-rule="nonzero"/></clipPath><clipPath id="6cd1c768e8"><path d="M 48.246094 189 L 84 189 L 84 225 L 48.246094 225 Z M 48.246094 189 " clip-rule="nonzero"/></clipPath></defs><g clip-path="url(#dda57d24c0)"><path fill="#0063b4" d="M 105.425781 108.417969 L 308.296875 108.417969 C 318.347656 108.417969 326.496094 116.578125 326.496094 126.644531 C 326.496094 136.710938 318.347656 144.871094 308.296875 144.871094 L 105.425781 144.871094 C 95.371094 144.871094 87.222656 136.710938 87.222656 126.644531 C 87.222656 116.578125 95.371094 108.417969 105.425781 108.417969 Z M 105.425781 108.417969 " fill-opacity="1" fill-rule="nonzero"/></g><path fill="#0063b4" d="M 104.644531 67.089844 L 307.515625 67.089844 C 317.566406 67.089844 325.714844 75.25 325.714844 85.316406 C 325.714844 95.382812 317.566406 103.542969 307.515625 103.542969 L 104.644531 103.542969 C 94.589844 103.542969 86.441406 95.382812 86.441406 85.316406 C 86.441406 75.25 94.589844 67.089844 104.644531 67.089844 Z M 104.644531 67.089844 " fill-opacity="1" fill-rule="nonzero"/><g clip-path="url(#1642f9e382)"><path fill="#0063b4" d="M 105.425781 190.855469 L 308.296875 190.855469 C 318.347656 190.855469 326.496094 199.015625 326.496094 209.082031 C 326.496094 219.148438 318.347656 227.308594 308.296875 227.308594 L 105.425781 227.308594 C 95.371094 227.308594 87.222656 219.148438 87.222656 209.082031 C 87.222656 199.015625 95.371094 190.855469 105.425781 190.855469 Z M 105.425781 190.855469 " fill-opacity="1" fill-rule="nonzero"/></g><path fill="#0063b4" d="M 104.644531 149.527344 L 307.515625 149.527344 C 317.566406 149.527344 325.714844 157.6875 325.714844 167.753906 C 325.714844 177.820312 317.566406 185.980469 307.515625 185.980469 L 104.644531 185.980469 C 94.589844 185.980469 86.441406 177.820312 86.441406 167.753906 C 86.441406 157.6875 94.589844 149.527344 104.644531 149.527344 Z M 104.644531 149.527344 " fill-opacity="1" fill-rule="nonzero"/><g clip-path="url(#ce75b6d408)"><path fill="#0063b4" d="M 104.800781 273.292969 L 307.671875 273.292969 C 317.722656 273.292969 325.875 281.453125 325.875 291.519531 C 325.875 301.585938 317.722656 309.746094 307.671875 309.746094 L 104.800781 309.742188 C 94.75 309.742188 86.601562 301.582031 86.601562 291.519531 C 86.601562 281.453125 94.75 273.292969 104.800781 273.292969 Z M 104.800781 273.292969 " fill-opacity="1" fill-rule="nonzero"/></g><path fill="#0063b4" d="M 104.019531 231.964844 L 306.890625 231.964844 C 316.945312 231.964844 325.09375 240.125 325.09375 250.191406 C 325.09375 260.257812 316.945312 268.417969 306.890625 268.417969 L 104.019531 268.417969 C 93.96875 268.417969 85.820312 260.257812 85.820312 250.191406 C 85.820312 240.125 93.96875 231.964844 104.019531 231.964844 Z M 104.019531 231.964844 " fill-opacity="1" fill-rule="nonzero"/><g clip-path="url(#39e91bab64)"><path fill="#014469" d="M 65.769531 65.375 C 75.390625 65.375 83.191406 73.1875 83.191406 82.820312 C 83.191406 92.457031 75.390625 100.265625 65.769531 100.265625 C 56.144531 100.265625 48.347656 92.457031 48.347656 82.820312 C 48.347656 73.1875 56.144531 65.375 65.769531 65.375 Z M 65.769531 65.375 " fill-opacity="1" fill-rule="nonzero"/></g><g clip-path="url(#c37e1edebb)"><path fill="#014469" d="M 66.355469 107.09375 C 75.976562 107.09375 83.777344 114.90625 83.777344 124.539062 C 83.777344 134.175781 75.976562 141.984375 66.355469 141.984375 C 56.730469 141.984375 48.933594 134.175781 48.933594 124.539062 C 48.933594 114.90625 56.730469 107.09375 66.355469 107.09375 Z M 66.355469 107.09375 " fill-opacity="1" fill-rule="nonzero"/></g><g clip-path="url(#cdc44ec03f)"><path fill="#014469" d="M 65.671875 230.632812 C 75.292969 230.632812 83.09375 238.445312 83.09375 248.078125 C 83.09375 257.714844 75.292969 265.523438 65.671875 265.523438 C 56.050781 265.523438 48.25 257.714844 48.25 248.078125 C 48.25 238.445312 56.050781 230.632812 65.671875 230.632812 Z M 65.671875 230.632812 " fill-opacity="1" fill-rule="nonzero"/></g><g clip-path="url(#5e33f4363e)"><path fill="#014469" d="M 66.257812 272.351562 C 75.878906 272.351562 83.679688 280.164062 83.679688 289.796875 C 83.679688 299.433594 75.878906 307.242188 66.257812 307.242188 C 56.636719 307.242188 48.835938 299.433594 48.835938 289.796875 C 48.835938 280.164062 56.636719 272.351562 66.257812 272.351562 Z M 66.257812 272.351562 " fill-opacity="1" fill-rule="nonzero"/></g><g clip-path="url(#3fb0b60523)"><path fill="#014469" d="M 65.769531 148.226562 C 75.390625 148.226562 83.1875 156.035156 83.1875 165.671875 C 83.1875 175.304688 75.390625 183.117188 65.769531 183.117188 C 56.144531 183.117188 48.347656 175.304688 48.347656 165.671875 C 48.347656 156.035156 56.144531 148.226562 65.769531 148.226562 Z M 65.769531 148.226562 " fill-opacity="1" fill-rule="nonzero"/></g><g clip-path="url(#6cd1c768e8)"><path fill="#014469" d="M 66.355469 189.941406 C 75.976562 189.941406 83.777344 197.753906 83.777344 207.386719 C 83.777344 217.023438 75.976562 224.832031 66.355469 224.832031 C 56.730469 224.832031 48.933594 217.023438 48.933594 207.386719 C 48.933594 197.753906 56.730469 189.941406 66.355469 189.941406 Z M 66.355469 189.941406 " fill-opacity="1" fill-rule="nonzero"/></g></svg>