<?xml version="1.0" standalone="no"?>
<!DOCTYPE svg PUBLIC "-//W3C//DTD SVG 20010904//EN"
 "http://www.w3.org/TR/2001/REC-SVG-20010904/DTD/svg10.dtd">
<svg version="1.0" xmlns="http://www.w3.org/2000/svg"
 width="500.000000pt" height="500.000000pt" viewBox="0 0 500.000000 500.000000"
 preserveAspectRatio="xMidYMid meet">

<g transform="translate(0.000000,500.000000) scale(0.100000,-0.100000)"
fill="#000000" stroke="none">
<path d="M2320 4489 c-47 -4 -126 -15 -176 -24 l-90 -16 -175 -175 -174 -174
68 -68 68 -69 92 35 c385 144 820 137 1188 -21 l36 -16 69 70 69 69 -174 174
-174 175 -86 15 c-185 33 -365 42 -541 25z m0 -204 c96 -96 173 -175 170 -175
-3 0 -84 79 -180 175 -96 96 -173 175 -170 175 3 0 84 -79 180 -175z m540 172
c0 -1 -80 -81 -177 -177 l-178 -175 175 178 c162 164 180 182 180 174z"/>
<path d="M1875 4396 c-71 -24 -175 -65 -230 -90 l-99 -47 77 -77 77 -77 167
168 c93 92 161 167 153 167 -8 0 -73 -20 -145 -44z"/>
<path d="M3132 4273 l168 -168 77 75 78 75 -75 -77 -74 -78 74 -77 75 -78 -77
75 -78 74 -65 -64 c-36 -35 -65 -68 -65 -72 0 -3 8 -9 18 -12 9 -3 52 -25 94
-49 l76 -44 142 142 142 142 -29 20 c-53 38 -218 129 -303 167 -82 37 -308
116 -333 116 -6 0 63 -75 155 -167z"/>
<path d="M1444 4194 c-261 -163 -493 -397 -648 -654 l-50 -81 77 -77 77 -77
197 197 198 198 -105 107 -105 108 108 -105 107 -105 197 197 198 198 -75 75
c-41 41 -77 75 -81 75 -3 0 -46 -25 -95 -56z"/>
<path d="M3417 3342 c-521 -521 -797 -804 -797 -817 0 -11 -7 -44 -14 -72 -8
-29 -11 -55 -7 -57 4 -3 22 4 39 14 27 17 32 26 32 59 0 37 19 71 40 71 5 0 6
-31 3 -70 -6 -75 3 -88 30 -46 13 20 14 29 4 55 -17 46 0 86 38 86 29 0 30 -2
30 -43 0 -23 4 -42 9 -42 4 0 21 11 38 25 38 32 73 41 104 26 31 -14 30 -54
-2 -59 -16 -2 -20 2 -20 19 1 32 -20 34 -49 5 -17 -17 -25 -36 -25 -60 0 -56
31 -59 62 -6 25 43 42 39 35 -9 -3 -23 0 -47 7 -56 9 -13 28 2 126 100 l115
115 -140 143 -140 142 143 -140 142 -140 197 198 198 197 -140 142 -140 143
143 -140 142 -140 197 198 198 197 -140 142 -140 143 143 -140 142 -140 197
198 198 197 -140 142 -140 143 142 -140 143 -139 35 34 c19 19 35 39 35 45 0
10 -49 59 -215 217 l-60 58 -798 -798z"/>
<path d="M1500 3895 l-195 -195 31 -31 32 -31 83 72 c95 82 215 163 309 210
36 18 67 34 69 36 5 5 -120 134 -129 134 -3 0 -93 -88 -200 -195z"/>
<path d="M1100 3495 l-195 -195 65 -65 c35 -36 67 -65 70 -65 3 0 21 30 39 68
46 95 127 214 211 311 l72 83 -28 29 c-15 16 -30 29 -33 29 -4 0 -94 -88 -201
-195z"/>
<path d="M694 3355 c-48 -103 -138 -358 -132 -376 2 -5 77 65 168 156 l165
165 -77 77 -77 77 -47 -99z"/>
<path d="M723 3118 l-172 -173 -15 -83 c-9 -46 -21 -146 -27 -222 -13 -153 -3
-341 27 -502 l16 -85 174 -174 174 -174 68 68 69 68 -35 92 c-62 166 -102 363
-102 507 l0 55 -182 185 -183 185 183 -180 182 -180 0 55 c0 144 40 341 102
507 l35 92 -66 65 c-37 36 -69 66 -71 66 -3 0 -83 -78 -177 -172z m167 -631
c0 -1 -80 -81 -177 -177 l-178 -175 175 178 c162 164 180 182 180 174z"/>
<path d="M4340 3135 l-34 -35 64 -65 c35 -35 65 -63 67 -61 4 4 -47 180 -56
189 -4 4 -22 -9 -41 -28z"/>
<path d="M4177 2972 l-117 -117 15 -70 c8 -39 18 -116 22 -173 l6 -104 181
179 181 178 -182 -185 -183 -185 0 -55 c0 -144 -40 -341 -102 -507 l-35 -92
69 -68 68 -68 174 174 175 174 15 86 c46 252 44 488 -5 746 -11 55 -18 66 -83
133 -39 39 -73 72 -76 72 -3 0 -58 -53 -123 -118z m113 -657 c96 -96 173 -175
170 -175 -3 0 -84 79 -180 175 -96 96 -173 175 -170 175 3 0 84 -79 180 -175z"/>
<path d="M1610 2665 l-34 -35 62 -63 62 -62 37 38 38 37 -60 60 c-33 33 -62
60 -65 60 -3 0 -21 -16 -40 -35z"/>
<path d="M1470 2525 l-95 -95 63 -62 62 -63 97 97 98 98 -60 60 c-33 33 -62
60 -65 60 -3 0 -48 -43 -100 -95z"/>
<path d="M1740 2535 l-34 -36 357 -357 357 -357 274 274 273 273 -24 24 c-18
18 -28 22 -42 15 -29 -16 -65 9 -69 47 -4 42 -33 43 -62 2 -12 -17 -35 -37
-51 -45 -26 -14 -30 -14 -40 4 -12 18 -13 18 -53 0 -56 -25 -81 -11 -72 41 3
21 9 47 12 57 3 10 -9 3 -30 -19 -20 -21 -36 -47 -36 -58 0 -20 -32 -44 -44
-33 -4 4 -59 -46 -124 -110 l-117 -117 -215 215 c-118 118 -217 215 -220 215
-4 0 -21 -16 -40 -35z"/>
<path d="M2766 2541 c-8 -12 3 -41 15 -41 12 0 12 37 0 45 -5 3 -12 1 -15 -4z"/>
<path d="M1600 2395 l-95 -95 198 -198 197 -197 97 98 98 97 -195 195 c-107
107 -197 195 -200 195 -3 0 -48 -43 -100 -95z"/>
<path d="M2000 1995 l-95 -95 158 -158 157 -157 97 98 98 97 -155 155 c-85 85
-157 155 -160 155 -3 0 -48 -43 -100 -95z"/>
<path d="M565 2000 c14 -64 85 -260 131 -358 l45 -96 77 77 77 77 -168 168
c-155 153 -168 164 -162 132z"/>
<path d="M4270 1865 l-165 -165 77 -77 77 -77 47 99 c46 99 138 359 132 376
-2 5 -77 -65 -168 -156z"/>
<path d="M970 1765 l-65 -65 198 -198 197 -197 31 31 31 32 -72 83 c-83 97
-165 216 -211 312 -18 37 -36 67 -39 67 -3 0 -35 -29 -70 -65z"/>
<path d="M3921 1763 c-46 -96 -128 -215 -211 -312 l-72 -83 31 -32 31 -31 197
197 198 198 -65 65 c-35 36 -67 65 -70 65 -3 0 -21 -30 -39 -67z"/>
<path d="M821 1616 l-74 -75 49 -81 c157 -261 404 -507 664 -664 l81 -50 77
77 77 77 -197 197 -198 198 -107 -105 -108 -105 105 108 105 107 -195 195
c-107 107 -197 195 -200 195 -3 0 -39 -34 -79 -74z"/>
<path d="M3900 1495 l-195 -195 105 -107 105 -108 -108 105 -107 105 -198
-198 -197 -197 77 -77 77 -77 81 50 c260 157 507 403 664 664 l49 81 -74 75
c-40 40 -76 74 -79 74 -3 0 -93 -88 -200 -195z"/>
<path d="M1335 1330 l-29 -31 197 -197 197 -197 65 65 c36 35 65 67 65 70 0 3
-30 21 -67 39 -95 46 -215 127 -311 210 -45 39 -83 71 -85 71 -2 0 -16 -14
-32 -30z"/>
<path d="M3546 1289 c-93 -81 -212 -163 -308 -210 -38 -18 -68 -36 -68 -39 0
-3 29 -35 65 -70 l65 -65 197 197 197 197 -29 31 c-16 16 -31 30 -34 29 -3 0
-42 -32 -85 -70z"/>
<path d="M1773 968 l-68 -68 174 -174 174 -174 85 -16 c160 -30 349 -40 500
-28 77 7 177 19 224 28 l85 16 174 174 174 174 -68 68 -68 69 -92 -35 c-366
-138 -768 -138 -1134 0 l-92 35 -68 -69z m717 -81 c0 -1 -80 -81 -177 -177
l-178 -175 175 178 c162 164 180 182 180 174z m200 -172 c96 -96 173 -175 170
-175 -3 0 -84 79 -180 175 -96 96 -173 175 -170 175 3 0 84 -79 180 -175z"/>
<path d="M1620 815 l-74 -74 100 -47 c91 -43 348 -134 376 -134 7 0 -61 74
-152 165 -91 91 -167 165 -170 165 -3 0 -39 -34 -80 -75z"/>
<path d="M3130 724 c-151 -152 -162 -165 -130 -159 64 14 260 85 358 131 l96
45 -74 74 c-41 41 -77 75 -80 75 -3 0 -79 -75 -170 -166z"/>
</g>
</svg>
