<?xml version="1.0" encoding="UTF-8"?>
<!DOCTYPE svg PUBLIC "-//W3C//DTD SVG 1.1//EN" "http://www.w3.org/Graphics/SVG/1.1/DTD/svg11.dtd">
<svg xmlns="http://www.w3.org/2000/svg" version="1.1" width="512px" height="512px" style="shape-rendering:geometricPrecision; text-rendering:geometricPrecision; image-rendering:optimizeQuality; fill-rule:evenodd; clip-rule:evenodd" xmlns:xlink="http://www.w3.org/1999/xlink">
<g><path style="opacity:0.942" fill="#6ba2f6" d="M 484.5,203.5 C 468.004,141.829 432.671,93.3285 378.5,58C 369.09,52.6284 359.423,47.7951 349.5,43.5C 292.395,19.0944 234.395,17.0944 175.5,37.5C 108.96,62.7066 62.627,108.373 36.5,174.5C 32.9982,184.207 29.6649,193.874 26.5,203.5C 47.3271,120.167 97.9938,63.3341 178.5,33C 258.352,8.1426 332.019,20.1426 399.5,69C 443.383,103.916 471.716,148.749 484.5,203.5 Z"/></g>
<g><path style="opacity:1" fill="#4d8cf4" d="M 349.5,43.5 C 348.351,43.7911 347.684,44.6244 347.5,46C 353.517,81.3953 352.35,116.562 344,151.5C 334.733,158.764 326.066,166.764 318,175.5C 317.138,177.087 316.471,178.754 316,180.5C 283.583,213.418 250.749,245.752 217.5,277.5C 206.86,267.194 196.193,256.861 185.5,246.5C 185.631,245.761 185.464,245.094 185,244.5C 181.571,240.561 177.737,237.228 173.5,234.5C 156.661,213.363 135.661,207.863 110.5,218C 103.388,221.613 97.7212,226.78 93.5,233.5C 81.5421,251.745 81.5421,270.079 93.5,288.5C 96.8827,296.385 102.549,302.219 110.5,306C 116.369,312.036 122.369,317.87 128.5,323.5C 134.917,330.246 141.25,336.912 147.5,343.5C 146.319,345.067 144.653,345.901 142.5,346C 108.449,353.235 74.4489,353.235 40.5,346C 38.4756,341.597 36.6423,337.097 35,332.5C 34.31,331.262 33.81,331.262 33.5,332.5C 22.7918,302.177 18.6252,270.844 21,238.5C 21.62,226.506 23.4533,214.839 26.5,203.5C 29.6649,193.874 32.9982,184.207 36.5,174.5C 71.0842,192.946 105.751,193.112 140.5,175C 175.726,151.71 191.559,118.877 188,76.5C 187.256,71.4482 186.256,66.4482 185,61.5C 182.091,53.356 178.924,45.356 175.5,37.5C 234.395,17.0944 292.395,19.0944 349.5,43.5 Z"/></g>
<g><path style="opacity:1" fill="#528ff5" d="M 175.5,37.5 C 178.924,45.356 182.091,53.356 185,61.5C 186.256,66.4482 187.256,71.4482 188,76.5C 191.559,118.877 175.726,151.71 140.5,175C 105.751,193.112 71.0842,192.946 36.5,174.5C 62.627,108.373 108.96,62.7066 175.5,37.5 Z"/></g>
<g><path style="opacity:1" fill="#4888f3" d="M 349.5,43.5 C 359.423,47.7951 369.09,52.6284 378.5,58C 432.671,93.3285 468.004,141.829 484.5,203.5C 487.96,217.157 489.96,231.157 490.5,245.5C 485.167,240.5 479.833,235.5 474.5,230.5C 453.092,208.425 431.425,186.758 409.5,165.5C 391.63,145.094 371.964,143.26 350.5,160C 308.965,201.701 267.299,243.201 225.5,284.5C 222.236,282.906 219.569,280.573 217.5,277.5C 250.749,245.752 283.583,213.418 316,180.5C 316.471,178.754 317.138,177.087 318,175.5C 326.066,166.764 334.733,158.764 344,151.5C 352.35,116.562 353.517,81.3953 347.5,46C 347.684,44.6244 348.351,43.7911 349.5,43.5 Z"/></g>
<g><path style="opacity:1" fill="#fefefe" d="M 409.5,165.5 C 411.808,169.778 413.808,174.111 415.5,178.5C 416.597,190.29 413.764,200.956 407,210.5C 348.5,269 290,327.5 231.5,386C 217.331,396.185 202.665,397.018 187.5,388.5C 171.717,376.312 166.884,360.646 173,341.5C 175.171,337.156 177.837,333.156 181,329.5C 196.035,314.632 210.869,299.632 225.5,284.5C 267.299,243.201 308.965,201.701 350.5,160C 371.964,143.26 391.63,145.094 409.5,165.5 Z"/></g>
<g><path style="opacity:1" fill="#3e70d5" d="M 415.5,178.5 C 417.233,179.008 417.566,179.841 416.5,181C 418.146,182.555 418.479,184.221 417.5,186C 420.212,192.13 419.879,198.13 416.5,204C 417.727,205.587 417.394,206.921 415.5,208C 415.833,208.333 416.167,208.667 416.5,209C 411.467,218.417 404.967,227.25 397,235.5C 347.167,285.333 297.333,335.167 247.5,385C 240.476,391.018 233.143,396.685 225.5,402C 219.51,403.184 213.676,404.684 208,406.5C 206.862,406.011 205.695,405.678 204.5,405.5C 200.036,401.537 195.702,397.37 191.5,393C 189.33,391.414 186.996,390.08 184.5,389C 185.448,388.517 186.448,388.351 187.5,388.5C 202.665,397.018 217.331,396.185 231.5,386C 290,327.5 348.5,269 407,210.5C 413.764,200.956 416.597,190.29 415.5,178.5 Z"/></g>
<g><path style="opacity:1" fill="#407ae3" d="M 409.5,165.5 C 431.425,186.758 453.092,208.425 474.5,230.5C 460.588,245.914 446.088,260.914 431,275.5C 433.317,269.856 435.984,264.19 439,258.5C 439.667,257.5 439.667,256.5 439,255.5C 377.833,316.667 316.667,377.833 255.5,439C 262.422,436.869 269.089,434.202 275.5,431C 267.965,438.702 260.298,446.202 252.5,453.5C 236.446,437.779 220.446,422.112 204.5,406.5C 204.5,406.167 204.5,405.833 204.5,405.5C 205.695,405.678 206.862,406.011 208,406.5C 213.676,404.684 219.51,403.184 225.5,402C 233.143,396.685 240.476,391.018 247.5,385C 297.333,335.167 347.167,285.333 397,235.5C 404.967,227.25 411.467,218.417 416.5,209C 416.167,208.667 415.833,208.333 415.5,208C 417.394,206.921 417.727,205.587 416.5,204C 419.879,198.13 420.212,192.13 417.5,186C 418.479,184.221 418.146,182.555 416.5,181C 417.566,179.841 417.233,179.008 415.5,178.5C 413.808,174.111 411.808,169.778 409.5,165.5 Z"/></g>
<g><path style="opacity:1" fill="#f0c751" d="M 173.5,234.5 C 174.167,236.167 174.833,237.833 175.5,239.5C 155.934,213.154 131.934,208.32 103.5,225C 100.568,228.442 97.2347,231.275 93.5,233.5C 97.7212,226.78 103.388,221.613 110.5,218C 135.661,207.863 156.661,213.363 173.5,234.5 Z"/></g>
<g><path style="opacity:1" fill="#fabf16" d="M 175.5,239.5 C 185.609,263.895 180.275,284.395 159.5,301C 133.907,314.614 111.907,310.448 93.5,288.5C 81.5421,270.079 81.5421,251.745 93.5,233.5C 97.2347,231.275 100.568,228.442 103.5,225C 131.934,208.32 155.934,213.154 175.5,239.5 Z"/></g>
<g><path style="opacity:0.999" fill="#417ee9" d="M 474.5,230.5 C 479.833,235.5 485.167,240.5 490.5,245.5C 491.313,270.233 488.646,294.566 482.5,318.5C 481.861,317.903 481.528,317.07 481.5,316C 482.911,311.207 483.745,306.373 484,301.5C 424.139,361.694 363.973,421.528 303.5,481C 304.094,481.464 304.761,481.631 305.5,481.5C 298.404,483.471 291.07,484.804 283.5,485.5C 272.928,475.051 262.595,464.384 252.5,453.5C 260.298,446.202 267.965,438.702 275.5,431C 269.089,434.202 262.422,436.869 255.5,439C 316.667,377.833 377.833,316.667 439,255.5C 439.667,256.5 439.667,257.5 439,258.5C 435.984,264.19 433.317,269.856 431,275.5C 446.088,260.914 460.588,245.914 474.5,230.5 Z"/></g>
<g><path style="opacity:1" fill="#4780e7" d="M 185.5,246.5 C 196.193,256.861 206.86,267.194 217.5,277.5C 219.569,280.573 222.236,282.906 225.5,284.5C 210.869,299.632 196.035,314.632 181,329.5C 177.837,333.156 175.171,337.156 173,341.5C 166.884,360.646 171.717,376.312 187.5,388.5C 186.448,388.351 185.448,388.517 184.5,389C 186.996,390.08 189.33,391.414 191.5,393C 195.702,397.37 200.036,401.537 204.5,405.5C 204.5,405.833 204.5,406.167 204.5,406.5C 182.385,401.331 170.218,387.331 168,364.5C 161.689,357.022 154.856,350.022 147.5,343.5C 141.25,336.912 134.917,330.246 128.5,323.5C 131.779,324.492 135.112,324.659 138.5,324C 141.82,321.798 145.32,319.964 149,318.5C 166.968,311.5 178.468,298.333 183.5,279C 184.009,277.831 184.842,276.998 186,276.5C 186.125,270.78 186.292,265.113 186.5,259.5C 184.406,257.586 184.406,255.419 186.5,253C 185.562,251.937 184.562,250.77 183.5,249.5C 184.193,248.482 184.859,247.482 185.5,246.5 Z"/></g>
<g><path style="opacity:1" fill="#4576d9" d="M 173.5,234.5 C 177.737,237.228 181.571,240.561 185,244.5C 185.464,245.094 185.631,245.761 185.5,246.5C 184.859,247.482 184.193,248.482 183.5,249.5C 184.562,250.77 185.562,251.937 186.5,253C 184.406,255.419 184.406,257.586 186.5,259.5C 186.292,265.113 186.125,270.78 186,276.5C 184.842,276.998 184.009,277.831 183.5,279C 178.468,298.333 166.968,311.5 149,318.5C 145.32,319.964 141.82,321.798 138.5,324C 135.112,324.659 131.779,324.492 128.5,323.5C 122.369,317.87 116.369,312.036 110.5,306C 102.549,302.219 96.8827,296.385 93.5,288.5C 111.907,310.448 133.907,314.614 159.5,301C 180.275,284.395 185.609,263.895 175.5,239.5C 174.833,237.833 174.167,236.167 173.5,234.5 Z"/></g>
<g><path style="opacity:1" fill="#4180ee" d="M 482.5,318.5 C 473.232,350.377 458.232,379.044 437.5,404.5C 436.883,404.389 436.383,404.056 436,403.5C 401.456,444.2 357.956,470.2 305.5,481.5C 304.761,481.631 304.094,481.464 303.5,481C 363.973,421.528 424.139,361.694 484,301.5C 483.745,306.373 482.911,311.207 481.5,316C 481.528,317.07 481.861,317.903 482.5,318.5 Z"/></g>
<g><path style="opacity:1" fill="#4787f3" d="M 147.5,343.5 C 154.856,350.022 161.689,357.022 168,364.5C 170.218,387.331 182.385,401.331 204.5,406.5C 220.446,422.112 236.446,437.779 252.5,453.5C 262.595,464.384 272.928,475.051 283.5,485.5C 201.253,493.484 132.586,466.984 77.5,406C 76.5632,405.308 75.8966,405.475 75.5,406.5C 56.8927,384.638 42.8927,359.971 33.5,332.5C 33.81,331.262 34.31,331.262 35,332.5C 36.6423,337.097 38.4756,341.597 40.5,346C 74.4489,353.235 108.449,353.235 142.5,346C 144.653,345.901 146.319,345.067 147.5,343.5 Z"/></g>
<g><path style="opacity:0.966" fill="#3c74dd" d="M 437.5,404.5 C 382.266,468.54 312.266,496.707 227.5,489C 165.911,481.048 115.244,453.548 75.5,406.5C 75.8966,405.475 76.5632,405.308 77.5,406C 132.586,466.984 201.253,493.484 283.5,485.5C 291.07,484.804 298.404,483.471 305.5,481.5C 357.956,470.2 401.456,444.2 436,403.5C 436.383,404.056 436.883,404.389 437.5,404.5 Z"/></g>
</svg>
