<svg xmlns="http://www.w3.org/2000/svg" xmlns:xlink="http://www.w3.org/1999/xlink" width="500" zoomAndPan="magnify" viewBox="0 0 375 374.999991" height="500" preserveAspectRatio="xMidYMid meet" version="1.0"><defs><clipPath id="2483f7881a"><path d="M 56 82 L 319.082031 82 L 319.082031 370.914062 L 56 370.914062 Z M 56 82 " clip-rule="nonzero"/></clipPath></defs><path fill="#ffa000" d="M 229.234375 138.085938 L 192.773438 172.027344 L 158.941406 103.746094 L 176.449219 64.472656 C 181.003906 56.5 188.105469 56.589844 192.546875 64.472656 Z M 229.234375 138.085938 " fill-opacity="1" fill-rule="nonzero"/><path fill="#f57f17" d="M 158.941406 103.746094 L 192.773438 172.027344 L 56.511719 298.851562 Z M 158.941406 103.746094 " fill-opacity="1" fill-rule="nonzero"/><g clip-path="url(#2483f7881a)"><path fill="#ffca28" d="M 269.113281 86.203125 C 275.621094 79.941406 282.363281 82.082031 284.082031 90.953125 L 319.550781 297.164062 L 201.980469 367.78125 C 197.882812 370.058594 186.957031 371.039062 186.957031 371.039062 C 186.957031 371.039062 177.007812 369.855469 173.214844 367.621094 L 56.511719 298.851562 Z M 269.113281 86.203125 " fill-opacity="1" fill-rule="nonzero"/></g><path fill="#ffa000" d="M 158.941406 103.746094 L 56.523438 298.851562 L 102.136719 13.707031 C 103.820312 4.824219 108.875 3.96875 113.382812 11.808594 Z M 158.941406 103.746094 " fill-opacity="1" fill-rule="nonzero"/></svg>